<svg width="22" height="22" viewBox="0 0 22 22" fill="none" xmlns="http://www.w3.org/2000/svg">
<g clip-path="url(#clip0_135_1235)">
<path d="M12.3749 0H9.62485C9.37185 0 9.1665 0.205348 9.1665 0.458348V1.83335C9.1665 2.84445 9.98875 3.6667 10.9999 3.6667C12.011 3.6667 12.8332 2.84445 12.8332 1.83335V0.458348C12.8332 0.205348 12.6279 0 12.3749 0Z" fill="#333333"/>
<path d="M6.4165 18.3333V21.9999H14.6665V18.3333H6.4165ZM9.62485 20.1666H7.7915C7.5385 20.1666 7.33316 19.9612 7.33316 19.7082C7.33316 19.4552 7.5385 19.2499 7.7915 19.2499H9.62485C9.87785 19.2499 10.0832 19.4553 10.0832 19.7083C10.0832 19.9613 9.87785 20.1666 9.62485 20.1666ZM13.2915 20.1666H11.4582C11.2052 20.1666 10.9998 19.9612 10.9998 19.7082C10.9998 19.4552 11.2052 19.2499 11.4582 19.2499H13.2915C13.5445 19.2499 13.7499 19.4553 13.7499 19.7083C13.7499 19.9613 13.5445 20.1666 13.2915 20.1666Z" fill="#333333"/>
<path d="M21.976 21.3968L20.1426 15.8968C20.1014 15.7713 20.007 15.6695 19.8841 15.6191L14.3841 13.3274C14.1522 13.2303 13.8827 13.3412 13.7846 13.574C13.7608 13.6318 13.7498 13.6914 13.7498 13.75H8.24976C8.24976 13.6914 8.23876 13.6318 8.21491 13.574C8.11776 13.3412 7.84916 13.2303 7.61541 13.3274L2.11541 15.6191C1.99351 15.6704 1.89906 15.7713 1.85691 15.8968L0.0235636 21.3968C-0.0231864 21.5362 0.000661224 21.6902 0.0859112 21.8103C0.172107 21.9294 0.310552 22 0.458107 22H5.49976V17.875C5.49976 17.622 5.70511 17.4167 5.95811 17.4167H15.1248C15.3778 17.4167 15.5831 17.622 15.5831 17.875V22H21.5415C21.6891 22 21.8275 21.9294 21.9136 21.8093C21.9998 21.6902 22.0227 21.5362 21.976 21.3968Z" fill="#333333"/>
<path d="M8.3103 9.9531L8.52571 11.2438L9.81636 9.52319L8.3103 9.9531Z" fill="#333333"/>
<path d="M12.1833 9.52319L13.474 11.2438L13.6894 9.9531L12.1833 9.52319Z" fill="#333333"/>
<path d="M10.9999 9.47192L9.1665 11.9167H12.8332L10.9999 9.47192Z" fill="#333333"/>
<path d="M8.2498 1.83331V0.560059C6.76845 1.17516 5.4998 2.32466 5.4998 4.12496V5.88406L3.6903 11.3135C3.6472 11.4436 3.6637 11.5848 3.73615 11.7012C3.75174 11.7269 3.91215 11.9744 4.2568 12.3163C4.85995 10.2914 6.88395 4.12496 9.16645 4.12496C9.29935 4.12496 9.4213 4.13506 9.53495 4.15156C8.76495 3.66386 8.2498 2.81046 8.2498 1.83331Z" fill="#333333"/>
<path d="M12.8333 5.04175C12.4978 5.04175 12.2797 5.13615 12.0267 5.24615C11.7517 5.3653 11.44 5.50005 11 5.50005C10.56 5.50005 10.2484 5.3653 9.97337 5.24615C9.72037 5.13615 9.50222 5.04175 9.16672 5.04175C7.86507 5.04175 5.96297 9.6645 5.02612 12.9516C5.64212 13.3935 6.49372 13.8591 7.66703 14.191C7.70737 14.2029 7.74953 14.2084 7.79168 14.2084H14.2083C14.2505 14.2084 14.2927 14.2029 14.333 14.191C15.5063 13.8591 16.3579 13.3935 16.9739 12.9516C16.0371 9.6645 14.1341 5.04175 12.8333 5.04175ZM11.55 6.6001C11.5995 6.5341 12.0533 5.95844 12.8334 5.95844C13.4989 5.95844 13.96 6.37185 14.1277 6.61569C14.224 6.75594 14.235 6.93835 14.1552 7.08869C14.0764 7.23904 13.9206 7.33344 13.7501 7.33344H11.9167C11.7435 7.33344 11.5849 7.23535 11.507 7.08044C11.429 6.9246 11.4455 6.73944 11.55 6.6001ZM7.87233 6.61569C8.04008 6.37185 8.50118 5.95844 9.16668 5.95844C9.78083 5.95844 10.1933 6.31594 10.3648 6.49929C10.483 6.58179 10.56 6.71929 10.56 6.87514C10.56 7.12814 10.3547 7.33349 10.1017 7.33349C10.0953 7.33258 10.0898 7.33349 10.0833 7.33349H8.24998C8.07948 7.33349 7.92363 7.23908 7.84483 7.08874C7.76508 6.93744 7.77608 6.75594 7.87233 6.61569ZM14.2019 12.4502C14.1955 12.4878 14.179 12.5208 14.1643 12.5538C14.1607 12.5621 14.1634 12.5712 14.1597 12.5795C14.1579 12.5831 14.1542 12.5841 14.1524 12.5877C14.1175 12.6537 14.0662 12.7069 14.0057 12.7481C13.992 12.7573 13.9791 12.7637 13.9645 12.772C13.8994 12.8077 13.8279 12.8334 13.75 12.8334H8.24998C8.23808 12.8334 8.22888 12.8251 8.21698 12.8242C8.15098 12.8196 8.08958 12.8031 8.03363 12.772C8.02354 12.7665 8.01254 12.7637 8.00248 12.7573C7.93923 12.7161 7.88883 12.6602 7.85213 12.5932C7.84939 12.5877 7.84298 12.5859 7.84023 12.5804C7.83473 12.5685 7.83838 12.5557 7.83288 12.5428C7.82098 12.5126 7.80354 12.4841 7.79804 12.4502L7.33969 9.7002C7.30119 9.47105 7.44144 9.2483 7.66604 9.18411L10.8744 8.26746C10.9046 8.25921 10.9358 8.27021 10.967 8.26746C10.9899 8.26561 11.011 8.26561 11.0339 8.26746C11.065 8.27021 11.0962 8.25921 11.1265 8.26746L14.3348 9.18411C14.5594 9.24826 14.6997 9.47101 14.6612 9.7002L14.2019 12.4502Z" fill="#333333"/>
<path d="M18.3095 11.3135L16.5 5.88406V4.12496C16.5 2.32461 15.2313 1.17511 13.75 0.560059V1.83331C13.75 2.81046 13.2348 3.66391 12.4648 4.15156C12.5785 4.13506 12.7004 4.12496 12.8333 4.12496C15.1158 4.12496 17.1398 10.2914 17.743 12.3163C18.0876 11.9753 18.2481 11.7269 18.2646 11.7012C18.3361 11.5848 18.3526 11.4427 18.3095 11.3135Z" fill="#333333"/>
</g>
<defs>
<clipPath id="clip0_135_1235">
<rect width="22" height="22" fill="white"/>
</clipPath>
</defs>
</svg>
