<svg width="11" height="18" viewBox="0 0 11 18" fill="none" xmlns="http://www.w3.org/2000/svg">
<path id="Vector" d="M10.5708 8.10669L3.0241 0.573353C2.90015 0.448382 2.75268 0.34919 2.5902 0.281498C2.42772 0.213807 2.25345 0.178955 2.07743 0.178955C1.90142 0.178955 1.72714 0.213806 1.56466 0.281498C1.40218 0.34919 1.25472 0.448382 1.13077 0.573353C0.882431 0.823169 0.743042 1.16111 0.743042 1.51335C0.743042 1.8656 0.882431 2.20354 1.13077 2.45335L7.73076 9.12002L1.13076 15.72C0.882429 15.9698 0.743041 16.3078 0.743041 16.66C0.743041 17.0123 0.882429 17.3502 1.13076 17.6C1.25425 17.726 1.40151 17.8262 1.56401 17.8949C1.72651 17.9636 1.90102 17.9993 2.07743 18C2.25384 17.9993 2.42835 17.9636 2.59085 17.8949C2.75335 17.8262 2.90061 17.726 3.0241 17.6L10.5708 10.0667C10.7061 9.94183 10.8141 9.79029 10.888 9.62163C10.9619 9.45296 11 9.27082 11 9.08669C11 8.90255 10.9619 8.72041 10.888 8.55174C10.8141 8.38308 10.7061 8.23154 10.5708 8.10669Z" fill="#196533"/>
</svg>
