<svg width="22" height="22" viewBox="0 0 22 22" fill="none" xmlns="http://www.w3.org/2000/svg">
<g id="Icons/services/bar">
<path id="coctail-glass" d="M20.5655 1.32138C20.7872 1.0997 20.853 0.767123 20.7332 0.477648C20.6133 0.188532 20.3311 0 20.0184 0H1.98188C1.66871 0 1.38654 0.188532 1.26696 0.477648C1.14679 0.767123 1.21297 1.0997 1.43466 1.32138L10.2261 10.1121V18.8744L5.1316 21.3448C4.98756 21.4154 4.91027 21.576 4.94652 21.7322C4.98232 21.8892 5.12148 22 5.2821 22H16.7181C16.8788 22 17.0177 21.8892 17.0533 21.7322C17.0899 21.576 17.0127 21.4154 16.8682 21.3448L11.7741 18.8743V10.112L20.5655 1.32138ZM18.1497 1.54773L16.1191 3.57835C14.3432 3.27916 12.8622 4.22589 11.2365 4.63351C9.42806 5.08701 7.42777 3.51177 5.6136 3.31092L3.85005 1.54773H18.1497Z" fill="#333333"/>
</g>
</svg>
