<svg width="22" height="22" viewBox="0 0 22 22" fill="none" xmlns="http://www.w3.org/2000/svg">
<g clip-path="url(#clip0_302_808)">
<path d="M13.5703 11C13.5686 12.3058 12.5892 13.4034 11.292 13.5532V18.7876H22V17.3204C18.8362 17.1539 16.2756 14.5107 16.2756 11.285C16.2756 8.05951 18.8362 5.41655 22 5.24981V3.2124H11.292V8.44679C12.5892 8.59661 13.5686 9.69422 13.5703 11Z" fill="#333333"/>
<path d="M22 16.6377V5.93274C19.2256 6.09853 16.957 8.43557 16.957 11.2852C16.957 14.1346 19.2256 16.4719 22 16.6377Z" fill="#333333"/>
<path d="M12.8889 11C12.8889 12.0432 12.0432 12.8889 11 12.8889C9.95677 12.8889 9.11108 12.0432 9.11108 11C9.11108 9.95677 9.95677 9.11108 11 9.11108C12.0432 9.11108 12.8889 9.95677 12.8889 11Z" fill="#333333"/>
<path d="M5.04369 11.2852C5.04369 8.43539 2.77434 6.09816 0 5.93256V16.6377C2.77434 16.4723 5.04369 14.135 5.04369 11.2852Z" fill="#333333"/>
<path d="M10.6106 13.5407C9.35654 13.3479 8.43062 12.2689 8.43062 11C8.43062 9.7311 9.35654 8.65213 10.6106 8.45934V3.2124H0V5.24981C3.16372 5.41617 5.72511 8.05951 5.72511 11.2852C5.72511 14.5109 3.16372 17.1542 0 17.3206V18.7876H10.6106V13.5407Z" fill="#333333"/>
</g>
<defs>
<clipPath id="clip0_302_808">
<rect width="22" height="22" fill="white"/>
</clipPath>
</defs>
</svg>
