<svg width="20" height="22" viewBox="0 0 20 22" fill="none" xmlns="http://www.w3.org/2000/svg">
<g id="Group">
<path id="Vector" d="M19.392 21.1422C18.0763 19.5854 15.7186 18.3983 12.8692 17.9138C12.5905 16.2451 12.0929 15.4655 12.0799 15.4438C12.2969 15.342 12.5587 15.3073 12.8576 15.3734C13.2221 15.4553 13.4709 15.6487 13.6218 15.8936C13.6657 15.965 13.7775 15.9409 13.7906 15.8579C13.8094 15.7364 13.8036 15.6038 13.7621 15.4568C13.658 15.0908 13.373 14.7866 13.0018 14.7066C12.7593 14.655 12.5182 14.695 12.3147 14.803C12.5032 14.6401 12.738 14.507 13.024 14.4139C13.6411 14.2163 14.1792 14.3127 14.5977 14.5798C14.6685 14.6246 14.7553 14.5595 14.7327 14.4785C14.6627 14.2273 14.5244 13.981 14.2679 13.7548C13.8359 13.3749 13.2347 13.21 12.6884 13.3908C12.5124 13.4492 12.3523 13.536 12.213 13.6435C12.2231 13.6305 12.2342 13.617 12.2443 13.6044C12.6469 13.1314 13.1305 12.927 13.6073 12.9154C13.711 12.913 13.7573 12.7785 13.6777 12.7115C13.5085 12.5707 13.3002 12.4598 13.0297 12.402C12.4213 12.2723 11.781 12.4545 11.3943 12.9415C11.2555 13.1155 11.159 13.3118 11.1031 13.5143C10.9392 13.3817 10.7473 13.279 10.5323 13.2182C9.93441 13.0485 9.30811 13.2742 8.88962 13.7336C8.70881 13.9318 8.60419 14.1386 8.54874 14.3455C8.51982 14.452 8.64228 14.5383 8.73437 14.4776C9.12635 14.2153 9.63307 14.1034 10.2295 14.251C10.2459 14.2558 10.2618 14.2601 10.2782 14.264C10.1022 14.2572 9.92188 14.2804 9.74397 14.3358C9.19481 14.507 8.80235 14.991 8.67265 15.5518C8.5984 15.8748 8.6254 16.1491 8.7093 16.3883C8.73967 16.4751 8.85924 16.477 8.89492 16.3921C9.08344 15.9399 9.46095 15.5576 10.0684 15.3623C10.3544 15.2702 10.6229 15.2418 10.8707 15.2639C10.6417 15.2943 10.4228 15.4028 10.2565 15.5865C10.0009 15.8681 9.94743 16.2803 10.0762 16.639C10.1277 16.7836 10.202 16.8955 10.2888 16.9837C10.3466 17.043 10.4508 16.9977 10.4445 16.9153C10.4228 16.6274 10.513 16.3285 10.7613 16.0489C10.9527 15.8343 11.1706 15.6964 11.3914 15.6656C11.391 15.6656 11.741 16.5252 11.7897 17.7658C11.2068 17.706 10.608 17.6727 9.99661 17.6727C8.49957 17.6727 7.07581 17.8593 5.78753 18.1973C6.05464 12.3764 9.63693 8.52026 9.64127 8.50098C10.0824 8.79267 10.4551 9.23913 10.6962 9.86639C11.0101 10.6812 10.9561 11.4194 10.6721 12.0288C10.5906 12.2033 10.7815 12.388 10.957 12.3065C11.2193 12.185 11.4724 12.0013 11.7048 11.7289C12.28 11.0534 12.5032 10.1075 12.1768 9.28301C11.9637 8.74494 11.5737 8.32885 11.1007 8.07284C11.66 8.22809 12.2236 8.5111 12.7728 8.94647C13.9386 9.87266 14.4482 11.0202 14.4882 12.1604C14.4959 12.3745 14.7587 12.4704 14.8961 12.3055C15.2755 11.8523 15.5615 11.2747 15.6642 10.5076C15.8425 9.17645 15.3845 7.79705 14.3262 6.97019C13.9839 6.70212 13.6093 6.50396 13.2187 6.37282C13.2578 6.37667 13.2964 6.38101 13.3359 6.38487C14.7592 6.55121 15.7746 7.21174 16.4148 8.10707C16.5643 8.31584 16.9032 8.22664 16.9274 7.97159C16.977 7.47402 16.9172 6.93692 16.6858 6.35449C16.1506 5.00643 14.9684 3.99973 13.5225 3.87726C13.0037 3.83339 12.4989 3.89896 12.0322 4.05373C12.078 3.56387 12.0269 3.05907 11.8673 2.5644C11.4223 1.18355 10.175 0.259294 8.74112 0.0408854C8.10518 -0.0555424 7.55602 0.0138856 7.07292 0.183599C6.84438 0.263634 6.83378 0.595827 7.05797 0.686469C8.09071 1.10304 8.97833 1.94582 9.46818 3.31123C9.48168 3.34836 9.49422 3.38548 9.50627 3.42213C9.29027 3.07161 9.01256 2.75099 8.6741 2.47858C7.62931 1.63435 6.18192 1.49984 4.92595 1.97378C4.1796 2.25535 3.67432 2.68156 3.31609 3.17141C3.20038 3.32956 3.33634 3.54314 3.52775 3.50312C4.6627 3.26639 5.9153 3.49541 7.09943 4.43751C7.64811 4.87336 8.05166 5.35791 8.32937 5.8685C7.97355 5.46447 7.47936 5.17904 6.90706 5.0937C6.03005 4.96208 5.15883 5.39263 4.63088 6.10668C4.41922 6.3921 4.29869 6.67801 4.2389 6.9591C4.19841 7.15002 4.42356 7.29563 4.57785 7.17558C5.10724 6.76383 5.81164 6.54639 6.67419 6.66788C7.38245 6.76769 7.92582 7.05842 8.31539 7.45907C8.24596 7.51838 3.92407 10.7434 1.09247 20.6176C0.91986 20.7815 0.759308 20.9522 0.611774 21.1267C0.321526 21.4705 0.566935 21.9999 1.01581 21.9999H18.9832C19.4253 22.0023 19.678 21.4806 19.392 21.1422Z" fill="#333333"/>
</g>
</svg>
