<svg width="20" height="20" viewBox="0 0 20 20" fill="none" xmlns="http://www.w3.org/2000/svg">
<g id="_x34_">
<path id="Vector" d="M12.7784 12.8437H12.4607V9.15256C12.4607 8.85108 12.2977 8.58218 12.0451 8.43552C11.7843 8.29701 11.4666 8.30517 11.214 8.45998L9.99995 9.21776C9.61696 9.45403 9.50287 9.95922 9.7392 10.3422C9.97548 10.7088 10.4562 10.8311 10.831 10.6192V12.8437H10.5132C10.0569 12.8437 9.69842 13.2022 9.69842 13.6585C9.69842 14.1066 10.0569 14.4733 10.5132 14.4733H12.7784C13.2266 14.4733 13.5933 14.1066 13.5933 13.6585C13.5933 13.2022 13.2266 12.8437 12.7784 12.8437ZM12.7784 12.8437H12.4607V9.15256C12.4607 8.85108 12.2977 8.58218 12.0451 8.43552C11.7843 8.29701 11.4666 8.30517 11.214 8.45998L9.99995 9.21776C9.61696 9.45403 9.50287 9.95922 9.7392 10.3422C9.97548 10.7088 10.4562 10.8311 10.831 10.6192V12.8437H10.5132C10.0569 12.8437 9.69842 13.2022 9.69842 13.6585C9.69842 14.1066 10.0569 14.4733 10.5132 14.4733H12.7784C13.2266 14.4733 13.5933 14.1066 13.5933 13.6585C13.5933 13.2022 13.2266 12.8437 12.7784 12.8437ZM9.99995 0.222168C4.60583 0.222168 0.222168 4.60588 0.222168 9.99995C0.222168 15.394 4.60583 19.7777 9.99995 19.7777C15.3859 19.7777 19.7777 15.394 19.7777 9.99995C19.7777 4.60588 15.3859 0.222168 9.99995 0.222168ZM4.63029 5.55109C4.18216 5.55109 3.81548 5.18441 3.81548 4.73627C3.81548 4.28814 4.18216 3.92146 4.63029 3.92146C5.08659 3.92146 5.44511 4.28814 5.44511 4.73627C5.44511 5.18441 5.08659 5.55109 4.63029 5.55109ZM11.3932 16.8526C8.48435 16.8526 6.12142 14.4896 6.12142 11.5807C6.12142 8.67179 8.48435 6.30886 11.3932 6.30886C14.3021 6.30886 16.6651 8.67179 16.6651 11.5807C16.6651 14.4896 14.3021 16.8526 11.3932 16.8526ZM12.7784 12.8437H12.4607V9.15256C12.4607 8.85108 12.2977 8.58218 12.0451 8.43552C11.7843 8.29701 11.4666 8.30517 11.214 8.45998L9.99995 9.21776C9.61696 9.45403 9.50287 9.95922 9.7392 10.3422C9.97548 10.7088 10.4562 10.8311 10.831 10.6192V12.8437H10.5132C10.0569 12.8437 9.69842 13.2022 9.69842 13.6585C9.69842 14.1066 10.0569 14.4733 10.5132 14.4733H12.7784C13.2266 14.4733 13.5933 14.1066 13.5933 13.6585C13.5933 13.2022 13.2266 12.8437 12.7784 12.8437Z" fill="#333333"/>
<path id="Vector_2" d="M12.7784 12.8437H12.4607V9.15254C12.4607 8.85107 12.2977 8.58216 12.0451 8.4355C11.7843 8.297 11.4666 8.30516 11.214 8.45997L9.99994 9.21774C9.61696 9.45402 9.50287 9.9592 9.7392 10.3422C9.97548 10.7088 10.4562 10.8311 10.831 10.6192V12.8437H10.5132C10.0569 12.8437 9.69842 13.2022 9.69842 13.6585C9.69842 14.1066 10.0569 14.4733 10.5132 14.4733H12.7784C13.2266 14.4733 13.5933 14.1066 13.5933 13.6585C13.5933 13.2022 13.2266 12.8437 12.7784 12.8437Z" fill="#333333"/>
<g id="Group">
<g id="Group_2">
<path id="Vector_3" d="M13.5933 13.6585C13.5933 14.1066 13.2266 14.4733 12.7784 14.4733H10.5132C10.0569 14.4733 9.69842 14.1066 9.69842 13.6585C9.69842 13.2022 10.0569 12.8437 10.5132 12.8437H10.831V10.6192C10.4562 10.8311 9.97548 10.7088 9.7392 10.3422C9.50287 9.9592 9.61696 9.45402 9.99994 9.21774L11.214 8.45997C11.4666 8.30516 11.7843 8.297 12.0451 8.4355C12.2977 8.58216 12.4607 8.85107 12.4607 9.15254V12.8437H12.7784C13.2266 12.8437 13.5933 13.2022 13.5933 13.6585Z" fill="#333333"/>
</g>
</g>
</g>
</svg>
