<svg width="22" height="22" viewBox="0 0 22 22" fill="none" xmlns="http://www.w3.org/2000/svg">
<path d="M9.625 19.9375C10.3844 19.9375 11 19.3219 11 18.5625C11 17.8031 10.3844 17.1875 9.625 17.1875C8.86561 17.1875 8.25 17.8031 8.25 18.5625C8.25 19.3219 8.86561 19.9375 9.625 19.9375Z" fill="#333333"/>
<path d="M16.5 13.75C16.5 13.2061 16.3387 12.6744 16.0365 12.2222C15.7344 11.7699 15.3049 11.4175 14.8024 11.2093C14.2999 11.0012 13.747 10.9467 13.2135 11.0528C12.6801 11.159 12.1901 11.4209 11.8055 11.8055C11.4209 12.1901 11.159 12.6801 11.0528 13.2135C10.9467 13.747 11.0012 14.2999 11.2093 14.8024C11.4175 15.3049 11.7699 15.7344 12.2222 16.0365C12.6744 16.3387 13.2061 16.5 13.75 16.5C14.4793 16.5 15.1788 16.2103 15.6945 15.6945C16.2103 15.1788 16.5 14.4793 16.5 13.75ZM14.7813 13.75C14.7813 13.4765 14.6726 13.2142 14.4792 13.0208C14.2858 12.8274 14.0235 12.7188 13.75 12.7188V12.0313C14.2058 12.0313 14.643 12.2123 14.9653 12.5347C15.2877 12.857 15.4688 13.2942 15.4688 13.75H14.7813Z" fill="#333333"/>
<path d="M13.75 6.1875C13.75 5.37165 13.5081 4.57413 13.0548 3.89577C12.6016 3.21742 11.9573 2.68871 11.2036 2.3765C10.4498 2.06429 9.62043 1.9826 8.82025 2.14176C8.02008 2.30093 7.28508 2.69379 6.70819 3.27069C6.13129 3.84758 5.73843 4.58258 5.57926 5.38275C5.4201 6.18293 5.50179 7.01233 5.814 7.76607C6.12621 8.51982 6.65492 9.16405 7.33327 9.61731C8.01163 10.0706 8.80915 10.3125 9.625 10.3125C10.719 10.3125 11.7682 9.8779 12.5418 9.10432C13.3154 8.33073 13.75 7.28152 13.75 6.1875ZM9.28125 4.125C8.82541 4.125 8.38824 4.30608 8.06591 4.62841C7.74358 4.95074 7.5625 5.38791 7.5625 5.84375H6.875C6.875 5.20557 7.12852 4.59354 7.57978 4.14228C8.03104 3.69102 8.64307 3.4375 9.28125 3.4375V4.125Z" fill="#333333"/>
</svg>
