<svg width="22" height="22" viewBox="0 0 22 22" fill="none" xmlns="http://www.w3.org/2000/svg">
<g id="Icons/services/concert" clip-path="url(#clip0_139_1437)">
<path id="Vector" d="M2.28978 16.7134L1.43749 17.5657C0.770188 18.233 0.642184 19.2382 1.05288 20.0355L0.188778 20.8997C-0.0629331 21.1514 -0.0629331 21.5594 0.188821 21.8111C0.314633 21.937 0.479547 22 0.644504 22C0.809461 22 0.974418 21.937 1.10027 21.8111L1.96386 20.9475C2.26077 21.1012 2.59198 21.183 2.9359 21.183C3.50188 21.183 4.03401 20.9626 4.43422 20.5623L5.28655 19.71L2.28978 16.7134Z" fill="#333333"/>
<path id="Vector_2" d="M10.4611 6.23486L3.20594 14.6834C2.9132 15.0243 2.93249 15.5332 3.25024 15.851L6.14913 18.7499C6.46688 19.0676 6.97576 19.0869 7.31668 18.7942L15.7651 11.5389L10.4611 6.23486ZM10.3728 12.5383C10.2469 12.6642 10.082 12.7271 9.91706 12.7271C9.75215 12.7271 9.58715 12.6642 9.46133 12.5383C9.20962 12.2866 9.20962 11.8786 9.46133 11.6268L10.4605 10.6276C10.7122 10.3759 11.1203 10.3759 11.372 10.6276C11.6237 10.8794 11.6237 11.2874 11.372 11.5391L10.3728 12.5383Z" fill="#333333"/>
<path id="Vector_3" d="M13.2894 1.29697L20.7028 8.71045C20.7472 8.75492 20.7834 8.80442 20.8122 8.85689C21.5818 7.89409 21.9999 6.70789 21.9999 5.45729C21.9999 3.99962 21.4323 2.62917 20.4015 1.59844C19.3709 0.56766 18.0004 0 16.5427 0C15.2921 0 14.106 0.418172 13.1433 1.18779C13.1956 1.21649 13.2451 1.25258 13.2894 1.29697Z" fill="#333333"/>
<path id="Vector_4" d="M19.7913 9.62194L12.3779 2.20845C12.3337 2.16419 12.2977 2.11495 12.269 2.06274C11.5857 2.91958 11.1806 3.95307 11.1003 5.05109L16.949 10.8998C18.0471 10.8195 19.0805 10.4144 19.9374 9.73112C19.885 9.70242 19.8356 9.66628 19.7913 9.62194Z" fill="#333333"/>
</g>
<defs>
<clipPath id="clip0_139_1437">
<rect width="22" height="22" fill="white"/>
</clipPath>
</defs>
</svg>
