<svg width="32" height="32" viewBox="0 0 32 32" fill="none" xmlns="http://www.w3.org/2000/svg">
<g id="Icons/ 32/ disabled">
<path id="Vector" d="M16 8.66659C16.5274 8.66659 17.043 8.51019 17.4815 8.21717C17.9201 7.92415 18.2619 7.50768 18.4637 7.02041C18.6655 6.53314 18.7183 5.99696 18.6154 5.47968C18.5125 4.9624 18.2586 4.48724 17.8856 4.1143C17.5127 3.74136 17.0375 3.48739 16.5203 3.38449C16.003 3.2816 15.4668 3.33441 14.9795 3.53624C14.4923 3.73807 14.0758 4.07987 13.7828 4.5184C13.4897 4.95693 13.3333 5.4725 13.3333 5.99992C13.3333 6.70716 13.6143 7.38544 14.1144 7.88554C14.6145 8.38563 15.2928 8.66659 16 8.66659ZM26 27.3333H24.6667V20.6666C24.6667 20.313 24.5262 19.9738 24.2762 19.7238C24.0261 19.4737 23.687 19.3333 23.3333 19.3333H16.6667V16.6666H23.3333C23.687 16.6666 24.0261 16.5261 24.2762 16.2761C24.5262 16.026 24.6667 15.6869 24.6667 15.3333C24.6667 14.9796 24.5262 14.6405 24.2762 14.3904C24.0261 14.1404 23.687 13.9999 23.3333 13.9999H16.6667V11.3333C16.6667 10.9796 16.5262 10.6405 16.2762 10.3904C16.0261 10.1404 15.687 9.99992 15.3333 9.99992C14.9797 9.99992 14.6406 10.1404 14.3905 10.3904C14.1405 10.6405 14 10.9796 14 11.3333V20.6666C14 21.0202 14.1405 21.3593 14.3905 21.6094C14.6406 21.8594 14.9797 21.9999 15.3333 21.9999H22V28.6666C22 29.0202 22.1405 29.3593 22.3905 29.6094C22.6406 29.8594 22.9797 29.9999 23.3333 29.9999H26C26.3536 29.9999 26.6928 29.8594 26.9428 29.6094C27.1929 29.3593 27.3333 29.0202 27.3333 28.6666C27.3333 28.313 27.1929 27.9738 26.9428 27.7238C26.6928 27.4737 26.3536 27.3333 26 27.3333ZM16.9333 25.1999C16.2617 26.0954 15.3254 26.7569 14.2569 27.0907C13.1884 27.4244 12.0421 27.4135 10.9801 27.0596C9.9182 26.7056 8.99456 26.0265 8.34005 25.1184C7.68554 24.2103 7.33334 23.1193 7.33334 21.9999C7.33491 20.9636 7.6384 19.9501 8.2067 19.0834C8.775 18.2168 9.5835 17.5345 10.5333 17.1199C10.8587 16.9785 11.1145 16.7136 11.2445 16.3835C11.3745 16.0534 11.3681 15.6853 11.2267 15.3599C11.0852 15.0346 10.8203 14.7788 10.4903 14.6487C10.1602 14.5187 9.79201 14.5251 9.46668 14.6666C8.34468 15.1565 7.35009 15.8974 6.55952 16.8323C5.76895 17.7671 5.20348 18.8709 4.90668 20.0587C4.60987 21.2465 4.58964 22.4865 4.84755 23.6834C5.10545 24.8802 5.63461 26.0018 6.39427 26.962C7.15392 27.9221 8.12381 28.6951 9.22924 29.2213C10.3347 29.7476 11.5461 30.0131 12.7703 29.9975C13.9945 29.9818 15.1988 29.6854 16.2904 29.131C17.382 28.5767 18.3318 27.7792 19.0667 26.7999C19.2789 26.517 19.37 26.1614 19.3199 25.8114C19.2699 25.4613 19.0829 25.1454 18.8 24.9333C18.5171 24.7211 18.1615 24.63 17.8115 24.68C17.4614 24.73 17.1455 24.917 16.9333 25.1999Z" fill="#333333"/>
</g>
</svg>
