<svg width="22" height="22" viewBox="0 0 22 22" fill="none" xmlns="http://www.w3.org/2000/svg">
<g id="Icons/services/disco">
<path id="Vector" d="M18.4621 12.1802C18.4621 11.9266 17.6948 11.5428 16.2401 11.2461C16.2639 11.5526 16.2773 11.8639 16.2773 12.1802C16.2773 12.4965 16.2639 12.8078 16.2401 13.1143C17.696 12.8173 18.4621 12.4335 18.4621 12.1802Z" fill="#333333"/>
<path id="Vector_2" d="M15.0201 8.38585C14.3308 8.12705 13.6153 7.94461 12.8864 7.8418C13.0053 8.63618 13.0823 9.4802 13.1289 10.2767C13.9257 10.3233 14.7694 10.4009 15.5641 10.5196C15.4613 9.79057 15.2789 9.07506 15.0201 8.38585Z" fill="#333333"/>
<path id="Vector_3" d="M15.7523 8.70508C15.9515 9.32967 16.0939 9.97097 16.1778 10.6212C16.9165 10.7337 17.6351 10.9523 18.3115 11.2702C17.9636 10.2409 17.0369 9.341 15.7523 8.70508Z" fill="#333333"/>
<path id="Vector_4" d="M9.66664 7.22824C9.77945 6.48938 9.99824 5.77064 10.3162 5.09424C9.28669 5.44237 8.38707 6.36905 7.75085 7.65367C8.37536 7.45454 9.01655 7.31216 9.66664 7.22824Z" fill="#333333"/>
<path id="Vector_5" d="M14.7007 7.65367C14.0645 6.36905 13.1649 5.44237 12.1356 5.09424C12.453 5.77078 12.6712 6.48948 12.7837 7.22824C13.4342 7.3121 14.0758 7.45449 14.7007 7.65367Z" fill="#333333"/>
<path id="Vector_6" d="M12.1594 7.16492C11.8621 5.70995 11.4789 4.94263 11.2256 4.94263C10.9723 4.94263 10.5882 5.70817 10.2915 7.16492C10.598 7.14114 10.9093 7.12776 11.2256 7.12776C11.5419 7.12776 11.8529 7.14084 12.1594 7.16492Z" fill="#333333"/>
<path id="Vector_7" d="M6.17251 12.1802C6.17251 11.8639 6.18618 11.5526 6.20967 11.2461C4.75499 11.5434 3.98767 11.9266 3.98767 12.1802C3.98767 12.4335 4.75499 12.8173 6.20967 13.1143C6.18618 12.8078 6.17251 12.4965 6.17251 12.1802Z" fill="#333333"/>
<path id="Vector_8" d="M9.91541 14.1135C9.96057 14.9435 10.0488 15.7706 10.1797 16.5915C10.5213 16.6212 10.8703 16.6385 11.2256 16.6385C11.5809 16.6385 11.9296 16.6221 12.2712 16.5915C12.4022 15.7706 12.4905 14.9435 12.5358 14.1135C12.0637 14.1331 11.6186 14.1433 11.2256 14.1433C10.8326 14.1433 10.3872 14.1331 9.91541 14.1135Z" fill="#333333"/>
<path id="Vector_9" d="M12.5926 12.1803C12.5926 11.7103 12.5816 11.2679 12.5647 10.8425C12.138 10.8255 11.6957 10.8142 11.2268 10.8142C10.758 10.8142 10.3144 10.8255 9.88898 10.8425C9.87204 11.2691 9.85925 11.7115 9.85925 12.1803C9.85925 12.6491 9.87055 13.0927 9.88898 13.5181C10.3156 13.5351 10.758 13.5479 11.2268 13.5479C11.6957 13.5479 12.1392 13.5366 12.5647 13.5181C12.5816 13.0927 12.5926 12.6503 12.5926 12.1803Z" fill="#333333"/>
<path id="Vector_10" d="M7.43248 8.38585C7.17382 9.0751 6.99138 9.7906 6.88843 10.5196C7.6831 10.4006 8.52713 10.3233 9.32359 10.2767C9.37027 9.4802 9.44786 8.63618 9.56648 7.8418C8.83741 7.94465 8.12181 8.12709 7.43248 8.38585Z" fill="#333333"/>
<path id="Vector_11" d="M15.6839 12.1803C15.6839 11.8235 15.6675 11.4763 15.6369 11.1344C14.816 11.0035 13.9889 10.9153 13.1589 10.8701C13.1783 11.3419 13.1872 11.787 13.1872 12.1803C13.1872 12.5736 13.1783 13.0187 13.1589 13.4905C13.9889 13.4453 14.816 13.3571 15.6369 13.2262C15.6675 12.8843 15.6839 12.5356 15.6839 12.1803Z" fill="#333333"/>
<path id="Vector_12" d="M9.91541 10.2469C10.3872 10.2272 10.8323 10.2171 11.2256 10.2171C11.6189 10.2171 12.0637 10.2261 12.5358 10.2469C12.4905 9.41686 12.4022 8.58975 12.2712 7.7689C11.9296 7.73917 11.5806 7.72192 11.2256 7.72192C10.8706 7.72192 10.5216 7.73827 10.1797 7.7689C10.0488 8.58976 9.96057 9.41686 9.91541 10.2469Z" fill="#333333"/>
<path id="Vector_13" d="M6.81436 11.1344C6.78463 11.4763 6.76709 11.825 6.76709 12.1803C6.76709 12.5356 6.78374 12.8843 6.81436 13.2262C7.63522 13.3571 8.46233 13.4453 9.29233 13.4905C9.27271 13.0187 9.2626 12.5736 9.2626 12.1803C9.2626 11.787 9.27152 11.3419 9.29233 10.8701C8.46233 10.9153 7.63522 11.0035 6.81436 11.1344Z" fill="#333333"/>
<path id="Vector_14" d="M15.0204 15.9748C15.2789 15.2855 15.4613 14.57 15.5641 13.8411C14.7694 13.96 13.9257 14.0373 13.1292 14.084C13.0823 14.8804 13.0047 15.7244 12.8864 16.5188C13.6154 16.416 14.331 16.2335 15.0204 15.9748Z" fill="#333333"/>
<path id="Vector_15" d="M6.98174 7.93773C7.3623 6.97404 7.95111 6.10635 8.70607 5.39673C7.73163 5.76108 6.84667 6.33021 6.11092 7.0657C5.37516 7.8012 4.80573 8.68595 4.44104 9.66027C5.15079 8.90603 6.01835 8.31785 6.98174 7.93773Z" fill="#333333"/>
<path id="Vector_16" d="M15.4692 7.93794C16.4329 8.3185 17.3006 8.90731 18.0102 9.66227C17.6458 8.68747 17.0766 7.80219 16.3409 7.06617C15.6052 6.33015 14.7201 5.76053 13.7455 5.39575C14.5005 6.1057 15.0891 6.97383 15.4692 7.93794Z" fill="#333333"/>
<path id="Vector_17" d="M6.98167 16.4238C6.01794 16.0433 5.15023 15.4545 4.44067 14.6995C4.80518 15.6741 5.37453 16.5592 6.11029 17.295C6.84605 18.0308 7.7311 18.6002 8.7057 18.9648C7.95087 18.2551 7.36216 17.3874 6.98167 16.4238Z" fill="#333333"/>
<path id="Vector_18" d="M15.4693 16.424C15.0889 17.3877 14.5 18.2554 13.745 18.965C14.7197 18.6005 15.6048 18.0312 16.3406 17.2954C17.0764 16.5597 17.6458 15.6746 18.0103 14.7C17.3007 15.4549 16.433 16.0436 15.4693 16.424Z" fill="#333333"/>
<path id="Vector_19" d="M15.7523 15.6554C17.0369 15.0192 17.9636 14.1196 18.3115 13.0903C17.6351 13.408 16.9165 13.6266 16.1778 13.7393C16.0938 14.3895 15.9515 15.0308 15.7523 15.6554Z" fill="#333333"/>
<path id="Vector_20" d="M12.7838 17.1325C12.671 17.8713 12.4524 18.59 12.1348 19.2665C13.164 18.9183 14.0636 17.9917 14.6998 16.707C14.0753 16.9062 13.434 17.0486 12.7838 17.1325Z" fill="#333333"/>
<path id="Vector_21" d="M6.69866 15.6554C6.49957 15.0308 6.35709 14.3895 6.27293 13.7393C5.53432 13.6266 4.8158 13.408 4.13953 13.0903C4.48915 14.1196 5.41404 15.0192 6.69866 15.6554Z" fill="#333333"/>
<path id="Vector_22" d="M9.56489 16.5188C9.44598 15.7244 9.36868 14.8804 9.322 14.084C8.52554 14.0373 7.68152 13.9597 6.88684 13.8411C6.99027 14.5701 7.17321 15.2856 7.43238 15.9748C8.12123 16.2334 8.83633 16.4159 9.56489 16.5188Z" fill="#333333"/>
<path id="Vector_23" d="M6.27299 10.6212C6.35696 9.97096 6.49945 9.32966 6.69871 8.70508C5.41409 9.341 4.48742 10.2409 4.13928 11.2702C4.81563 10.9524 5.53426 10.7338 6.27299 10.6212Z" fill="#333333"/>
<path id="Vector_24" d="M11.2256 17.2332C10.9093 17.2332 10.598 17.2198 10.2915 17.196C10.5888 18.651 10.972 19.4183 11.2256 19.4183C11.4792 19.4183 11.8621 18.651 12.1594 17.196C11.8529 17.2198 11.5416 17.2332 11.2256 17.2332Z" fill="#333333"/>
<path id="Vector_25" d="M7.75024 16.708C8.38646 17.9926 9.28608 18.9193 10.3156 19.2674C9.99783 18.591 9.77925 17.8723 9.66662 17.1334C9.01633 17.0496 8.37494 16.9072 7.75024 16.708Z" fill="#333333"/>
<path id="Vector_26" d="M19.8386 19.4939L19.0954 19.0271L19.0567 18.1531C19.0541 18.0978 19.0361 18.0443 19.0047 17.9987C18.9734 17.9531 18.9299 17.9172 18.8793 17.895C18.8286 17.8727 18.7727 17.865 18.7179 17.8728C18.6631 17.8806 18.6116 17.9035 18.5691 17.939L17.8973 18.5009L17.0529 18.269C16.9994 18.2538 16.9427 18.254 16.8893 18.2696C16.8359 18.2852 16.788 18.3156 16.751 18.3572C16.7141 18.3988 16.6896 18.4499 16.6804 18.5048C16.6713 18.5597 16.6777 18.616 16.6991 18.6674L17.0262 19.479L16.5446 20.2074C16.514 20.2536 16.4969 20.3074 16.4952 20.3628C16.4936 20.4182 16.5075 20.4729 16.5353 20.5208C16.5631 20.5688 16.6038 20.6079 16.6527 20.634C16.7016 20.66 16.7568 20.6719 16.8121 20.6682L17.6862 20.6087L18.2302 21.2925C18.2579 21.3276 18.2931 21.3559 18.3333 21.3755C18.3734 21.395 18.4175 21.4053 18.4621 21.4055C18.484 21.4051 18.5059 21.4031 18.5275 21.3996C18.5817 21.3871 18.6315 21.36 18.6713 21.3212C18.7112 21.2824 18.7396 21.2334 18.7535 21.1796L18.9646 20.3293L19.7851 20.0231C19.8368 20.0031 19.882 19.9692 19.9156 19.9251C19.9491 19.881 19.9698 19.8285 19.9754 19.7733C19.9809 19.7186 19.971 19.6635 19.9468 19.6141C19.9227 19.5647 19.8852 19.5231 19.8386 19.4939Z" fill="#333333"/>
<path id="Vector_27" d="M20.5224 3.90658L19.4521 3.3982L19.2648 2.22685C19.2558 2.17254 19.2318 2.12183 19.1955 2.08036C19.1593 2.03889 19.1123 2.0083 19.0597 1.99198C19.007 1.97498 18.9506 1.97321 18.8969 1.98688C18.8433 2.00056 18.7946 2.02912 18.7565 2.06928L17.9419 2.93144L16.7705 2.74712C16.7159 2.73835 16.6598 2.74513 16.6088 2.76669C16.5579 2.78824 16.5139 2.8237 16.4821 2.86901C16.4503 2.91473 16.4317 2.96841 16.4286 3.02405C16.4254 3.07969 16.4378 3.13512 16.4643 3.18414L17.0321 4.22469L16.494 5.28009C16.4694 5.32972 16.4591 5.38525 16.4644 5.44041C16.4697 5.49557 16.4902 5.54816 16.5238 5.59225C16.5561 5.63737 16.6009 5.67209 16.6526 5.69216C16.7044 5.71222 16.7608 5.71676 16.8151 5.70523L17.9805 5.4882L18.8189 6.3236C18.846 6.35142 18.8784 6.37362 18.9141 6.38892C18.9498 6.40422 18.9882 6.41234 19.027 6.41279C19.0605 6.41265 19.0937 6.40661 19.1251 6.39496C19.1774 6.37726 19.2237 6.34537 19.2589 6.30283C19.2941 6.2603 19.3167 6.20882 19.3243 6.15415L19.4759 4.97685L20.5313 4.43874C20.5804 4.41326 20.6214 4.37461 20.6497 4.32712C20.678 4.27963 20.6925 4.22518 20.6916 4.1699C20.6907 4.11461 20.6744 4.06069 20.6445 4.01417C20.6146 3.96765 20.5723 3.93039 20.5224 3.90658Z" fill="#333333"/>
<path id="Vector_28" d="M3.24059 15.4179C3.20862 15.3728 3.16469 15.3375 3.11375 15.3159C3.0628 15.2944 3.00686 15.2875 2.95221 15.296L2.3487 15.3912L1.92654 14.9482C1.88814 14.9082 1.83932 14.8797 1.78559 14.8659C1.73185 14.8522 1.67535 14.8538 1.62246 14.8705C1.56958 14.8872 1.52242 14.9184 1.48631 14.9605C1.45021 15.0026 1.4266 15.0539 1.41816 15.1087L1.32302 15.7122L0.77005 15.9739C0.720499 15.9985 0.678718 16.0364 0.649315 16.0833C0.619912 16.1302 0.604027 16.1843 0.603412 16.2396C0.602797 16.295 0.617476 16.3494 0.64583 16.3969C0.674184 16.4445 0.715113 16.4832 0.764104 16.509L1.30816 16.7855L1.38843 17.392C1.396 17.4466 1.41865 17.4981 1.45383 17.5407C1.48901 17.5832 1.53533 17.6151 1.58762 17.6328C1.61918 17.6435 1.6524 17.6485 1.68573 17.6476C1.72439 17.6477 1.76269 17.6402 1.79841 17.6254C1.83413 17.6106 1.86656 17.5888 1.89383 17.5614L2.32789 17.1303L2.92843 17.2403C2.98302 17.2503 3.03933 17.2449 3.09097 17.2245C3.14261 17.2042 3.18753 17.1698 3.22064 17.1252C3.25374 17.0807 3.27371 17.0277 3.27829 16.9724C3.28287 16.9171 3.27187 16.8616 3.24654 16.8122L2.97005 16.2682L3.25843 15.7301C3.28561 15.6818 3.29837 15.6267 3.29521 15.5714C3.29205 15.5161 3.27309 15.4628 3.24059 15.4179Z" fill="#333333"/>
<path id="Vector_29" d="M4.78644 5.84476C4.83136 5.81226 4.86593 5.76747 4.88597 5.71578C4.90602 5.66408 4.91068 5.6077 4.89942 5.55341L4.77455 4.88449L5.2532 4.3999C5.29256 4.36066 5.31991 4.311 5.33202 4.25676C5.34413 4.20251 5.34051 4.14594 5.32158 4.09368C5.30366 4.04099 5.27131 3.99438 5.22821 3.95917C5.18512 3.92396 5.133 3.90155 5.07779 3.89449L4.40293 3.80828L4.09077 3.20476C4.06488 3.15564 4.0259 3.11465 3.97815 3.08632C3.9304 3.05798 3.87574 3.04341 3.82023 3.04422C3.76505 3.04483 3.71119 3.06107 3.66488 3.09107C3.61857 3.12106 3.58172 3.16358 3.5586 3.21368L3.26725 3.82909L2.59536 3.93909C2.5408 3.94862 2.48995 3.97313 2.4485 4.00986C2.40704 4.0466 2.37661 4.09413 2.36058 4.14715C2.34455 4.20017 2.34356 4.2566 2.35771 4.31015C2.37187 4.3637 2.40063 4.41227 2.44077 4.45044L2.93725 4.91719L2.8332 5.58909C2.82443 5.64375 2.83121 5.69977 2.85277 5.75076C2.87432 5.80176 2.90978 5.84566 2.95509 5.87747C3.00095 5.90902 3.05459 5.92737 3.11016 5.93052C3.16573 5.93366 3.2211 5.92148 3.27023 5.8953L3.86779 5.56828L4.47428 5.87449C4.52391 5.89912 4.57944 5.90938 4.6346 5.90413C4.68976 5.89888 4.74235 5.87831 4.78644 5.84476Z" fill="#333333"/>
<path id="Vector_30" d="M11.5229 4.40197V0.89178C11.5229 0.812932 11.4916 0.737313 11.4359 0.681559C11.3801 0.625805 11.3045 0.594482 11.2256 0.594482C11.1468 0.594482 11.0712 0.625805 11.0154 0.681559C10.9597 0.737313 10.9283 0.812932 10.9283 0.89178V4.40197C11.1199 4.32944 11.3314 4.32944 11.5229 4.40197Z" fill="#333333"/>
</g>
</svg>
