<svg width="22" height="19" viewBox="0 0 22 19" fill="none" xmlns="http://www.w3.org/2000/svg">
<g id="21 - 30">
<g id="Art">
<path id="Vector" d="M21.0538 7.66245C20.905 7.33334 20.7395 7.01209 20.5579 6.69995L18.2176 13.057C18.1284 13.2945 17.9986 13.5148 17.834 13.7079C18.4622 13.6457 19.0675 13.4393 19.6028 13.1047C20.1381 12.7701 20.5888 12.3164 20.92 11.7789C21.2511 11.2415 21.4536 10.6348 21.5117 10.0063C21.5698 9.3777 21.482 8.7442 21.255 8.15516C21.1927 7.98741 21.1257 7.82424 21.0538 7.66245Z" fill="#333333"/>
<path id="Vector_2" d="M7.62197 1.93324C6.25643 2.41932 5.003 3.17593 3.93673 4.15778C2.87045 5.13963 2.01324 6.32654 1.41642 7.64744C0.8196 8.96834 0.495437 10.3961 0.463336 11.8452C0.431235 13.2943 0.691857 14.735 1.2296 16.0811C1.24381 16.1099 1.25343 16.1384 1.26764 16.1672C1.55333 16.8495 2.01845 17.4416 2.61361 17.8808C3.20877 18.3199 3.91176 18.5897 4.64791 18.6614C5.38406 18.7331 6.1259 18.6041 6.79464 18.2881C7.46338 17.9721 8.03405 17.4809 8.44606 16.8667C9.30778 15.5686 10.5448 14.5642 11.9922 13.9874C12.038 13.9691 12.0838 13.9553 12.1297 13.9384C12.2926 13.5624 12.5351 13.2263 12.8405 12.9531C13.1458 12.6799 13.5067 12.4761 13.8984 12.3557C13.8889 12.0106 13.9596 11.6679 14.1051 11.3547L17.7259 3.51403C16.3037 2.43587 14.6363 1.72715 12.873 1.45128C11.1097 1.17541 9.30557 1.341 7.62197 1.93324ZM4.81239 13.8957C4.44979 13.8957 4.09534 13.7882 3.79385 13.5868C3.49236 13.3853 3.25737 13.099 3.11861 12.764C2.97985 12.429 2.94355 12.0604 3.01428 11.7047C3.08502 11.3491 3.25963 11.0224 3.51603 10.766C3.77242 10.5096 4.09909 10.335 4.45473 10.2643C4.81036 10.1936 5.17898 10.2299 5.51398 10.3686C5.84898 10.5074 6.1353 10.7424 6.33675 11.0439C6.5382 11.3453 6.64572 11.6998 6.64572 12.0624C6.64572 12.5486 6.45257 13.015 6.10875 13.3588C5.76494 13.7026 5.29862 13.8957 4.81239 13.8957ZM7.10406 8.6249C6.74146 8.6249 6.387 8.51738 6.08551 8.31593C5.78402 8.11448 5.54904 7.82815 5.41028 7.49316C5.27152 7.15816 5.23521 6.78954 5.30595 6.43391C5.37669 6.07827 5.5513 5.7516 5.80769 5.49521C6.06409 5.23881 6.39076 5.0642 6.74639 4.99346C7.10202 4.92272 7.47065 4.95903 7.80564 5.09779C8.14064 5.23655 8.42697 5.47154 8.62842 5.77303C8.82987 6.07452 8.93739 6.42897 8.93739 6.79157C8.93739 7.2778 8.74424 7.74412 8.40042 8.08793C8.0566 8.43175 7.59029 8.6249 7.10406 8.6249ZM12.6041 7.02074C12.2415 7.02074 11.887 6.91321 11.5855 6.71177C11.284 6.51032 11.049 6.22399 10.9103 5.88899C10.7715 5.55399 10.7352 5.18537 10.806 4.82974C10.8767 4.47411 11.0513 4.14744 11.3077 3.89104C11.5641 3.63465 11.8908 3.46004 12.2464 3.3893C12.602 3.31856 12.9706 3.35486 13.3056 3.49362C13.6406 3.63239 13.927 3.86737 14.1284 4.16886C14.3299 4.47035 14.4374 4.8248 14.4374 5.1874C14.4374 5.67363 14.2442 6.13995 13.9004 6.48377C13.5566 6.82758 13.0903 7.02074 12.6041 7.02074Z" fill="#333333"/>
<path id="Vector_3" d="M20.8441 0.902539C20.6407 0.818074 20.4125 0.815669 20.2074 0.895828C20.0023 0.975987 19.8362 1.13248 19.7441 1.33246L14.9389 11.7389C14.8282 11.9783 14.7925 12.2455 14.8362 12.5056C14.88 12.7656 15.0012 13.0064 15.1841 13.1964C14.7374 13.0916 14.268 13.1489 13.8597 13.358C13.4513 13.5671 13.1304 13.9145 12.9543 14.3381C12.2123 16.1302 13.3861 16.9162 12.6436 18.7083C13.49 18.6138 14.2964 18.2968 14.9806 17.7896C15.6649 17.2825 16.2027 16.6032 16.5394 15.8208C16.6979 15.4356 16.7278 15.0094 16.6245 14.6058C16.5213 14.2022 16.2905 13.8428 15.9665 13.581C16.2595 13.6187 16.5567 13.556 16.8095 13.4031C17.0623 13.2502 17.2558 13.0161 17.3584 12.739L21.3184 1.98146C21.3936 1.77514 21.3863 1.54776 21.2979 1.34675C21.2095 1.14573 21.0469 0.986596 20.8441 0.902539Z" fill="#333333"/>
</g>
</g>
</svg>
