<svg width="22" height="20" viewBox="0 0 22 20" fill="none" xmlns="http://www.w3.org/2000/svg">
<path d="M7.5269 6.3031C7.38212 5.91325 6.99084 5.69299 6.59302 5.69299C6.39445 5.69299 6.37612 5.69808 6.25787 5.69808H3.04075C2.92244 5.69808 2.81731 5.69808 2.70542 5.69808C2.25112 5.69808 1.9165 5.91319 1.77172 6.3031L0.0539561 11.5269C-0.109697 11.9677 0.111462 12.4591 0.547852 12.6244C0.9843 12.7897 1.47077 12.5663 1.63448 12.1256L2.09118 10.896C2.09118 10.896 2.12376 10.772 2.12376 11.3133V18.5639C2.12376 19.1978 2.63258 19.7116 3.26029 19.7116C3.88801 19.7116 4.39682 19.1978 4.39682 18.5639V13.8271C4.39682 13.8271 4.39131 13.7852 4.4354 13.7852C4.54202 13.7852 4.75546 13.7852 4.86214 13.7852C4.90425 13.7852 4.90192 13.8271 4.90192 13.8271V18.5639C4.90192 19.1978 5.41073 19.7116 6.03845 19.7116C6.66616 19.7116 7.17498 19.1978 7.17498 18.5639V11.3133C7.17498 10.7633 7.22272 10.9366 7.22272 10.9366L7.66432 12.1257C7.82791 12.5665 8.3145 12.7898 8.75095 12.6245C9.18734 12.4591 9.40856 11.9678 9.24484 11.5271L7.5269 6.3031Z" fill="#333333"/>
<path d="M4.67187 5.11862C6.01955 5.11862 7.11206 4.03735 7.11206 2.70354C7.11206 1.36972 6.01955 0.288452 4.67187 0.288452C3.3242 0.288452 2.23169 1.36972 2.23169 2.70354C2.23169 4.03735 3.3242 5.11862 4.67187 5.11862Z" fill="#333333"/>
<path d="M17.1215 5.13013C18.4691 5.13013 19.5616 4.03762 19.5616 2.68994C19.5616 1.34226 18.4691 0.249756 17.1215 0.249756C15.7738 0.249756 14.6813 1.34226 14.6813 2.68994C14.6813 4.03762 15.7738 5.13013 17.1215 5.13013Z" fill="#333333"/>
<path d="M21.9196 11.4113L19.8375 6.33957C19.7184 6.08366 19.6131 5.74072 19.1238 5.74072C18.9431 5.74072 18.7639 5.74072 18.557 5.74072H16.009C15.798 5.74072 15.6884 5.74072 15.4286 5.74072C14.9407 5.74072 14.6861 6.05868 14.5464 6.34508L12.3838 11.3785C12.1778 11.8011 12.3499 12.3117 12.7678 12.519C13.1861 12.7262 13.6921 12.5517 13.8981 12.129L14.0608 11.7953C14.0608 11.7953 14.1114 11.7053 14.0924 11.8048C13.9747 12.4247 13.6496 14.2893 13.6496 14.2893C13.5707 14.6773 13.8299 14.9947 14.2259 14.9947C14.2259 14.9947 14.9322 14.9947 15.1676 14.9947C15.235 14.9947 15.223 15.0455 15.223 15.0455V18.7934C15.223 19.4211 15.614 19.7502 16.0964 19.7502C16.5787 19.7502 16.9699 19.4211 16.9699 18.7934V15.0306C16.9699 15.0306 16.9679 14.9934 17.0072 14.9947C17.0579 14.9964 17.1863 14.995 17.2439 14.995C17.2767 14.995 17.2726 15.0345 17.2726 15.0345V18.7934C17.2726 19.4211 17.6638 19.7502 18.1462 19.7502C18.6285 19.7502 19.0196 19.4211 19.0196 18.7934V15.0555C19.0196 15.0555 19.0139 14.9947 19.0862 14.9947C19.3395 14.9947 20.0993 14.9947 20.0993 14.9947C20.4952 14.9947 20.7608 14.6761 20.6894 14.2866C20.6894 14.2866 20.3636 12.2867 20.2768 11.7419C20.252 11.5858 20.5114 12.1403 20.5114 12.1403C20.7098 12.5665 21.0929 12.7445 21.5147 12.5448C21.9368 12.3451 22.118 11.8377 21.9196 11.4113Z" fill="#333333"/>
<path d="M11.408 19.2922C11.408 19.5229 11.2194 19.7116 10.9887 19.7116H10.809C10.5783 19.7116 10.3896 19.5229 10.3896 19.2922V0.923711C10.3896 0.693087 10.5783 0.504395 10.809 0.504395H10.9887C11.2193 0.504395 11.408 0.693087 11.408 0.923711V19.2922Z" fill="#333333"/>
</svg>
