<svg width="22" height="11" viewBox="0 0 22 11" fill="none" xmlns="http://www.w3.org/2000/svg">
<path id="Vector" d="M21.6335 10.1438H20.5C20.3941 9.55985 20.0371 9.0543 19.5178 8.75959C19.7048 6.00727 16.6788 4.27108 14.3968 5.70797C14.2308 5.81247 14.009 5.76251 13.8995 5.59614C13.784 5.42105 13.8477 5.18546 14.026 5.07501C14.136 5.00671 14.2492 4.94346 14.3647 4.88617C14.6264 4.75646 14.6337 4.38658 14.3807 4.24037C12.5629 3.18894 10.3235 4.45579 10.1012 6.47431C10.0806 6.65765 9.9252 6.7979 9.73682 6.7979C9.52003 6.7979 9.34815 6.61044 9.37199 6.39548C9.57503 4.54379 11.1485 3.16144 12.9292 3.12844C13.1973 3.1234 13.3678 2.84335 13.2523 2.60135C12.5877 1.21304 11.1678 0.243652 9.5104 0.243652C6.12465 0.243652 4.16938 4.0882 6.18194 6.86711C6.58345 7.40657 7.10596 7.83741 7.70546 8.12754C7.8778 8.21096 7.95984 8.41034 7.89109 8.58909C7.7953 8.81322 7.56567 8.87418 7.38829 8.78847C6.25459 8.24149 5.33026 7.26334 4.86802 5.90405C4.81069 5.73538 4.61301 5.65934 4.45199 5.73552C2.89433 6.47271 1.98956 8.12085 2.34111 10.1438H0.378915C0.183662 10.1438 0.0131602 10.2914 0.00078501 10.4862C-0.0129652 10.6997 0.155704 10.8771 0.36654 10.8771H21.6211C21.8163 10.8771 21.9869 10.7295 21.9992 10.5347C22.013 10.3212 21.8438 10.1438 21.6335 10.1438ZM8.56347 3.18298C8.39343 3.31636 8.25089 3.48732 8.15051 3.67799C8.05609 3.8572 7.83426 3.92595 7.6555 3.83153C7.47629 3.73757 7.40709 3.51573 7.5015 3.33652C7.64955 3.05556 7.85992 2.80302 8.11064 2.60639C8.26968 2.48126 8.50022 2.50876 8.62535 2.66827C8.75048 2.82731 8.72252 3.05785 8.56347 3.18298Z" fill="#333333"/>
</svg>
