<svg width="22" height="22" viewBox="0 0 22 22" fill="none" xmlns="http://www.w3.org/2000/svg">
<g clip-path="url(#clip0_144_3410)">
<path d="M19.2409 13.3135L15.5634 11.4727H8.66559C8.41123 11.4727 8.20429 11.6796 8.20429 11.9339V12.3952C8.20429 13.4127 9.02772 14.2361 10.0452 14.2361H12.8043V15.1544L8.20429 16.9909L2.50063 15.6114C1.56511 15.3699 0.599413 15.8916 0.293321 16.8056L0.0174066 17.5428C-0.0472607 17.7713 0.0734517 18.0084 0.293321 18.0946L8.10945 20.6684H8.29483L19.2409 18.8318H22V13.3135H19.2409Z" fill="#333333"/>
<path d="M10.9635 2.18215C7.28613 -0.576992 4.52699 4.02301 6.36354 6.78215C8.20009 9.54129 10.9635 10.4596 10.9635 10.4596C10.9635 10.4596 14.253 8.94204 15.5635 6.78215C17.2147 4.0575 14.641 -0.576992 10.9635 2.18215Z" fill="#333333"/>
</g>
<defs>
<clipPath id="clip0_144_3410">
<rect width="22" height="22" fill="white"/>
</clipPath>
</defs>
</svg>
