<svg width="22" height="22" viewBox="0 0 22 22" fill="none" xmlns="http://www.w3.org/2000/svg">
<g clip-path="url(#clip0_302_825)">
<path d="M19.3789 3.95312V0.644531C19.3789 0.288528 19.0904 0 18.7344 0H3.26562C2.90962 0 2.62109 0.288528 2.62109 0.644531V3.95312H1.97656C1.62056 3.95312 1.33203 4.24165 1.33203 4.59766V9.75391C1.33203 10.1099 1.62056 10.3984 1.97656 10.3984H2.62109V11.043C2.62109 11.399 2.90962 11.6875 3.26562 11.6875C3.62163 11.6875 3.91016 11.399 3.91016 11.043V10.3984H4.55469C4.91069 10.3984 5.19922 10.1099 5.19922 9.75391V4.59766C5.19922 4.24165 4.91069 3.95312 4.55469 3.95312H3.91016V1.28906H9.06641V2.66406H12.9336V1.28906H18.0898V3.95312H17.4453C17.0893 3.95312 16.8008 4.24165 16.8008 4.59766V9.75391C16.8008 10.1099 17.0893 10.3984 17.4453 10.3984H18.0898V11.043C18.0898 11.399 18.3784 11.6875 18.7344 11.6875C19.0904 11.6875 19.3789 11.399 19.3789 11.043V10.3984H20.0234C20.3794 10.3984 20.668 10.1099 20.668 9.75391V4.59766C20.668 4.24165 20.3794 3.95312 20.0234 3.95312H19.3789Z" fill="#333333"/>
<path d="M14.4693 10.3984L15.0032 6.12657C15.0719 5.57637 14.9013 5.02315 14.5344 4.60706C14.1673 4.19164 13.6393 3.95312 13.0847 3.95312H8.9154C8.36101 3.95312 7.83279 4.19164 7.46588 4.60706C7.09897 5.02315 6.92844 5.57637 6.99708 6.12657L7.53084 10.3984H14.4693Z" fill="#333333"/>
<path d="M6.48828 12.332V13.6211C6.48828 13.9771 6.77681 14.2656 7.13281 14.2656H14.8672C15.2232 14.2656 15.5117 13.9771 15.5117 13.6211V12.332C15.5117 11.976 15.2232 11.6875 14.8672 11.6875H7.13281C6.77681 11.6875 6.48828 11.976 6.48828 12.332Z" fill="#333333"/>
<path d="M14.2227 16.8438H12.9336V15.5547H9.06641V16.8438H7.77734V16.1992C7.77734 15.8432 7.48882 15.5547 7.13281 15.5547H3.26562C2.90962 15.5547 2.62109 15.8432 2.62109 16.1992V18.7773C2.62109 19.1333 2.90962 19.4219 3.26562 19.4219H7.13281C7.48882 19.4219 7.77734 19.1333 7.77734 18.7773V18.1328H9.06641V20.7109H8.42188C8.06587 20.7109 7.77734 20.9995 7.77734 21.3555C7.77734 21.7115 8.06587 22 8.42188 22H13.5781C13.9341 22 14.2227 21.7115 14.2227 21.3555C14.2227 20.9995 13.9341 20.7109 13.5781 20.7109H12.9336V18.1328H14.2227V18.7773C14.2227 19.1333 14.5112 19.4219 14.8672 19.4219H18.7344C19.0904 19.4219 19.3789 19.1333 19.3789 18.7773V16.1992C19.3789 15.8432 19.0904 15.5547 18.7344 15.5547H14.8672C14.5112 15.5547 14.2227 15.8432 14.2227 16.1992V16.8438Z" fill="#333333"/>
</g>
<defs>
<clipPath id="clip0_302_825">
<rect width="22" height="22" fill="white"/>
</clipPath>
</defs>
</svg>
