<svg width="22" height="22" viewBox="0 0 22 22" fill="none" xmlns="http://www.w3.org/2000/svg">
<g clip-path="url(#clip0_302_770)">
<path d="M17.6 3.37737V2.27739L6.59999 0.0773698C3.07998 -0.362613 0 2.49735 0 6.12735C0 9.20733 2.20002 11.7373 4.95 12.0673L7.48001 21.1974C7.58999 21.6373 8.03003 21.9673 8.57999 21.9673H10.67C11.44 21.9673 11.88 21.3073 11.77 20.5374L9.23999 11.4073L17.6 9.97736V8.87738L21.9999 9.97736V2.27739L17.6 3.37737ZM6.04998 8.87738C4.51001 8.87738 3.3 7.66736 3.3 6.12735C3.3 4.58733 4.51001 3.37737 6.04998 3.37737C7.58994 3.37737 8.79996 4.58738 8.79996 6.12735C8.79996 7.66731 7.58999 8.87738 6.04998 8.87738Z" fill="#333333"/>
</g>
<defs>
<clipPath id="clip0_302_770">
<rect width="22" height="22" fill="white"/>
</clipPath>
</defs>
</svg>
