<svg width="32" height="32" viewBox="0 0 32 32" fill="none" xmlns="http://www.w3.org/2000/svg">
<path d="M26.88 6.66667C25.4666 5.24961 23.5931 4.38472 21.5978 4.22823C19.6025 4.07174 17.617 4.63396 16 5.81334C14.3036 4.55152 12.192 3.97935 10.0906 4.21205C7.98915 4.44475 6.05394 5.46504 4.67465 7.06745C3.29536 8.66986 2.57445 10.7354 2.65709 12.848C2.73973 14.9607 3.61978 16.9636 5.12002 18.4533L13.4 26.7467C14.0934 27.429 15.0272 27.8115 16 27.8115C16.9728 27.8115 17.9067 27.429 18.6 26.7467L26.88 18.4533C28.4368 16.887 29.3106 14.7684 29.3106 12.56C29.3106 10.3516 28.4368 8.23298 26.88 6.66667ZM25 16.6133L16.72 24.8933C16.6258 24.9885 16.5137 25.064 16.3901 25.1155C16.2665 25.1671 16.1339 25.1936 16 25.1936C15.8661 25.1936 15.7336 25.1671 15.61 25.1155C15.4864 25.064 15.3742 24.9885 15.28 24.8933L7.00002 16.5733C5.95437 15.5045 5.36884 14.0686 5.36884 12.5733C5.36884 11.078 5.95437 9.64221 7.00002 8.57334C8.06556 7.52132 9.50265 6.93143 11 6.93143C12.4974 6.93143 13.9345 7.52132 15 8.57334C15.124 8.69831 15.2714 8.7975 15.4339 8.86519C15.5964 8.93288 15.7707 8.96773 15.9467 8.96773C16.1227 8.96773 16.297 8.93288 16.4595 8.86519C16.6219 8.7975 16.7694 8.69831 16.8934 8.57334C17.9589 7.52132 19.396 6.93143 20.8934 6.93143C22.3907 6.93143 23.8278 7.52132 24.8934 8.57334C25.9534 9.6282 26.5581 11.0563 26.5781 12.5516C26.598 14.0469 26.0315 15.4906 25 16.5733V16.6133Z" fill="#333333"/>
</svg>
