<svg width="17" height="16" viewBox="0 0 17 16" fill="none" xmlns="http://www.w3.org/2000/svg">
<g id="Icons/other/close">
<path id="Vector" d="M10.3782 7.9987L16.106 2.28423C16.3568 2.0334 16.4977 1.6932 16.4977 1.33847C16.4977 0.983747 16.3568 0.643549 16.106 0.39272C15.8552 0.141891 15.515 0.000976562 15.1602 0.000976562C14.8055 0.000976562 14.4653 0.141891 14.2145 0.39272L8.5 6.12052L2.78552 0.39272C2.53469 0.141891 2.1945 0.00097656 1.83977 0.000976562C1.48504 0.000976565 1.14485 0.141891 0.894017 0.39272C0.643188 0.643549 0.502273 0.983747 0.502273 1.33847C0.502273 1.6932 0.643188 2.0334 0.894017 2.28423L6.62182 7.9987L0.894017 13.7132C0.769166 13.837 0.67007 13.9843 0.602444 14.1467C0.534818 14.309 0.5 14.4831 0.5 14.6589C0.5 14.8348 0.534818 15.0089 0.602444 15.1712C0.67007 15.3335 0.769166 15.4809 0.894017 15.6047C1.01785 15.7295 1.16517 15.8286 1.3275 15.8963C1.48982 15.9639 1.66392 15.9987 1.83977 15.9987C2.01562 15.9987 2.18972 15.9639 2.35204 15.8963C2.51437 15.8286 2.66169 15.7295 2.78552 15.6047L8.5 9.87689L14.2145 15.6047C14.3383 15.7295 14.4856 15.8286 14.648 15.8963C14.8103 15.9639 14.9844 15.9987 15.1602 15.9987C15.3361 15.9987 15.5102 15.9639 15.6725 15.8963C15.8348 15.8286 15.9822 15.7295 16.106 15.6047C16.2308 15.4809 16.3299 15.3335 16.3976 15.1712C16.4652 15.0089 16.5 14.8348 16.5 14.6589C16.5 14.4831 16.4652 14.309 16.3976 14.1467C16.3299 13.9843 16.2308 13.837 16.106 13.7132L10.3782 7.9987Z" fill="#7D7D7D"/>
</g>
</svg>
