<svg width="22" height="12" viewBox="0 0 22 12" fill="none" xmlns="http://www.w3.org/2000/svg">
<g id="Layer_x0020_1">
<g id="_373286024">
<path id="_373286960" fill-rule="evenodd" clip-rule="evenodd" d="M20.019 9.82289C20.7865 9.81066 21.5428 9.71469 21.7792 8.80569C21.9359 8.20293 22.0125 7.61853 21.9984 7.00501L21.9298 6.99674C21.8053 6.98172 21.6812 6.96258 21.5579 6.93959C21.1751 6.86824 20.7511 6.75268 20.4044 6.57216C20.1242 6.42625 19.814 6.18351 19.8514 5.828C19.8588 5.75868 19.8587 5.75913 19.8838 5.69397C20.0466 5.27101 20.6708 5.19793 21.1864 5.21305C20.0192 4.23854 18.9312 4.14871 18.1639 4.16835C17.878 4.17566 17.6298 4.06787 17.4132 3.84248C13.5775 -0.147584 4.93558 0.938176 2.98528 1.24314C2.71412 1.28561 2.49203 1.42487 2.30745 1.66807C1.80979 2.32387 1.08147 3.36857 0.690488 3.93459C0.59056 4.07928 0.519915 4.22697 0.470839 4.3777H1.86877V6.03258L0.15177 7.23562C-0.375681 8.58259 0.641006 9.96885 0.641006 9.96885L2.81699 9.9524C2.72934 9.70611 2.68149 9.44099 2.68149 9.16465C2.68149 7.8664 3.73421 6.81368 5.03246 6.81368C6.33071 6.81368 7.38338 7.8664 7.38338 9.16465C7.38338 9.42845 7.33994 9.68211 7.25975 9.91886L15.5143 9.85648C15.447 9.63775 15.4107 9.40541 15.4107 9.16465C15.4107 7.86635 16.4634 6.81368 17.7616 6.81368C19.0599 6.81368 20.1126 7.8664 20.1126 9.16465C20.1126 9.39313 20.0798 9.614 20.019 9.82289ZM3.53557 5.15616C3.42711 5.15616 3.33916 5.24411 3.33916 5.35262C3.33916 5.46107 3.42711 5.54902 3.53557 5.54902H4.42619C4.53465 5.54902 4.6226 5.46107 4.6226 5.35262C4.6226 5.24411 4.53465 5.15616 4.42619 5.15616H3.53557ZM9.30577 5.15616C9.19726 5.15616 9.10931 5.24411 9.10931 5.35262C9.10931 5.46107 9.19726 5.54902 9.30577 5.54902H10.1963C10.3048 5.54902 10.3927 5.46107 10.3927 5.35262C10.3927 5.24411 10.3048 5.15616 10.1963 5.15616H9.30577ZM16.7359 4.55456C16.7256 4.54421 16.7153 4.53376 16.7052 4.52315C14.9976 2.74683 12.0477 2.0486 9.10931 1.89208V4.55456H16.7359ZM8.24995 4.55456V1.86133C6.4688 1.82733 4.7374 1.97466 3.33916 2.18268V4.55456H8.24995Z" fill="#333333"/>
<path id="_373285832" fill-rule="evenodd" clip-rule="evenodd" d="M5.03258 7.20654C6.11397 7.20654 6.99069 8.08321 6.99069 9.16466C6.99069 10.2461 6.11397 11.1227 5.03258 11.1227C3.95118 11.1227 3.07446 10.2461 3.07446 9.16466C3.07446 8.08321 3.95118 7.20654 5.03258 7.20654ZM5.03258 8.18872C5.5716 8.18872 6.00851 8.62563 6.00851 9.16466C6.00851 9.70363 5.5716 10.1405 5.03258 10.1405C4.49355 10.1405 4.05664 9.70363 4.05664 9.16466C4.05664 8.62563 4.49355 8.18872 5.03258 8.18872Z" fill="#333333"/>
<path id="_373285688" fill-rule="evenodd" clip-rule="evenodd" d="M17.7615 7.20654C18.843 7.20654 19.7196 8.08321 19.7196 9.16466C19.7196 10.2461 18.843 11.1227 17.7615 11.1227C16.6801 11.1227 15.8035 10.2461 15.8035 9.16466C15.8035 8.08321 16.6801 7.20654 17.7615 7.20654ZM17.7615 8.18872C18.3005 8.18872 18.7375 8.62563 18.7375 9.16466C18.7375 9.70363 18.3005 10.1405 17.7615 10.1405C17.2226 10.1405 16.7856 9.70363 16.7856 9.16466C16.7856 8.62563 17.2226 8.18872 17.7615 8.18872Z" fill="#333333"/>
<path id="_373285952" fill-rule="evenodd" clip-rule="evenodd" d="M21.643 5.64359C20.925 5.5531 20.3304 5.62776 20.2504 5.83528C20.159 6.07284 20.7766 6.3944 21.6299 6.5535C21.7478 6.57548 21.8639 6.59324 21.9769 6.60684C21.9713 6.54127 21.9647 6.47524 21.9571 6.40876C21.9225 6.10557 21.8183 5.85147 21.643 5.64359Z" fill="#333333"/>
<path id="_373285928" fill-rule="evenodd" clip-rule="evenodd" d="M0.387502 4.77051C0.331981 5.25228 0.41841 5.76441 0.41841 6.30993C0.41841 6.4058 0.411254 6.49674 0.396587 6.58439L1.47595 5.8281V4.77051H0.387502Z" fill="#333333"/>
</g>
</g>
</svg>
