<svg width="22" height="22" viewBox="0 0 22 22" fill="none" xmlns="http://www.w3.org/2000/svg">
<path d="M11 4.05408C11 4.05408 8.10815 6.51649 8.10815 9.55408C8.10815 12.5917 11 15.0541 11 15.0541C11 15.0541 13.8918 12.5917 13.8918 9.55408C13.8918 6.51649 11 4.05408 11 4.05408Z" fill="#333333"/>
<path d="M8.39328 14.2864C7.90679 13.6166 7.51659 12.9286 7.23351 12.2415C6.86192 11.3396 6.67346 10.4354 6.67346 9.55409C6.67346 8.96821 6.75725 8.37228 6.9222 7.77355C5.0739 7.12786 3.22191 7.27593 3.22191 7.27593C3.22191 7.27593 2.91825 11.062 5.06617 13.2099C6.16144 14.3051 7.68249 14.7627 8.91041 14.9484C8.74339 14.7491 8.56859 14.5278 8.39328 14.2864Z" fill="#333333"/>
<path d="M7.65256 16.1585C6.17392 15.7858 4.96233 15.1352 4.05152 14.2243C3.63726 13.81 3.27508 13.3294 2.96841 12.7894C1.20489 13.6397 0 15.054 0 15.054C0 15.054 2.46241 17.9459 5.5 17.9459C7.04902 17.9459 8.44826 17.1939 9.44784 16.4567C8.91198 16.4099 8.29649 16.3207 7.65256 16.1585Z" fill="#333333"/>
<path d="M18.7782 7.27593C18.7782 7.27593 16.9261 7.12786 15.0779 7.77355C15.2428 8.37224 15.3266 8.96821 15.3266 9.55409C15.3266 10.4354 15.1382 11.3396 14.7666 12.2415C14.4835 12.9286 14.0933 13.6166 13.6068 14.2864C13.4315 14.5278 13.2566 14.7491 13.0897 14.9484C14.3176 14.7627 15.8387 14.3051 16.9339 13.2099C19.0818 11.0619 18.7782 7.27593 18.7782 7.27593Z" fill="#333333"/>
<path d="M19.0316 12.7894C18.7249 13.3294 18.3628 13.8101 17.9485 14.2244C17.0377 15.1352 15.8261 15.7859 14.3475 16.1585C13.7035 16.3208 13.088 16.41 12.5522 16.4569C13.5518 17.1939 14.951 17.946 16.5 17.946C19.5376 17.946 22 15.0541 22 15.0541C22 15.0541 20.7951 13.6397 19.0316 12.7894Z" fill="#333333"/>
</svg>
