<svg width="22" height="22" viewBox="0 0 22 22" fill="none" xmlns="http://www.w3.org/2000/svg">
<g clip-path="url(#clip0_134_680)">
<path d="M14.3253 20.8073H0V19.4716C0.260629 19.6787 0.593397 19.8044 0.951762 19.8044H13.3363L14.3253 20.8073ZM6.19925 1.19263C5.43132 1.19263 4.80768 1.81628 4.80768 2.5842C4.80768 3.06124 5.04736 3.48244 5.41503 3.73376C5.57327 3.29628 5.82925 2.8937 6.169 2.55395C6.50875 2.2142 6.91132 1.95822 7.34881 1.79999C7.09749 1.43234 6.67629 1.19263 6.19925 1.19263ZM5.80132 4.83913C5.80132 6.30517 6.99047 7.49196 8.45415 7.49196C9.91787 7.49196 11.107 6.30284 11.107 4.83913C11.107 3.37309 9.91787 2.1863 8.45415 2.1863C8.14235 2.1863 7.84447 2.23982 7.56755 2.33756C6.81592 2.60517 6.21786 3.20089 5.95258 3.95253C5.85485 4.23177 5.80132 4.52961 5.80132 4.83913ZM4.36088 8.49955C3.73956 9.87716 2.38522 13.398 2.01289 14.2846H6.63441C6.7368 14.0333 6.85084 13.7889 6.97648 13.5586C7.41164 12.7464 8.77066 12.3438 8.44717 11.2106C8.44485 11.2013 8.44019 11.1919 8.43787 11.1803L9.65493 12.3346C9.74567 12.4206 9.85506 12.4905 9.97141 12.5347L13.2991 13.8053C13.4108 13.8472 13.5271 13.8681 13.6412 13.8681C14.0275 13.8681 14.3905 13.633 14.5347 13.2514C14.7232 12.7581 14.4765 12.2042 13.9809 12.0157L11.0395 10.8918C10.9022 10.8383 10.7765 10.7591 10.6695 10.6591C10.6695 10.6591 8.0795 8.20171 8.07717 8.19938C7.96783 8.09467 7.82585 8.02718 7.67695 7.97831C7.64204 7.96668 7.60478 7.95504 7.56757 7.94573C7.52801 7.9341 7.48613 7.92246 7.44424 7.91316C6.7973 7.74095 6.07827 7.59435 5.41273 7.65253C5.19399 7.67114 4.9543 7.72699 4.76814 7.85498C4.55403 8.00854 4.4656 8.26919 4.36088 8.49955ZM0.951762 19.2226H13.5783L14.7884 20.4489C14.9024 20.5653 15.0397 20.656 15.1863 20.7165C15.3306 20.7747 15.4842 20.8073 15.6424 20.8073H20.7992C21.4693 20.8073 22.0092 20.2581 21.9999 19.5879C21.9883 18.9293 21.4391 18.4081 20.7806 18.4081H16.145L12.9942 15.2108C12.7499 14.9618 12.6056 14.8594 12.1681 14.8594C11.4142 14.8594 0.951762 14.8663 0.951762 14.8663C0.425849 14.8663 0 15.2922 0 15.8181V18.0242V18.2708C0 18.7967 0.425849 19.2226 0.951762 19.2226ZM20.2686 14.8338C20.2686 13.3142 19.0352 12.0809 17.5157 12.0809C15.9961 12.0809 14.7628 13.3142 14.7628 14.8338C14.7628 16.3533 15.9961 17.5867 17.5157 17.5867C19.0352 17.5867 20.2686 16.3556 20.2686 14.8338Z" fill="#333333"/>
</g>
<defs>
<clipPath id="clip0_134_680">
<rect width="22" height="22" fill="white"/>
</clipPath>
</defs>
</svg>
