<svg width="22" height="22" viewBox="0 0 22 22" fill="none" xmlns="http://www.w3.org/2000/svg">
<g id="Group">
<g id="Group_2">
<path id="Vector" d="M7.74938 8.1355C3.91959 8.1355 0.817139 11.2379 0.817139 15.0677C0.817139 18.8975 3.91959 22 7.74938 22C11.5792 22 14.6816 18.8975 14.6816 15.0677C14.6816 11.2379 11.5747 8.1355 7.74938 8.1355ZM8.3151 18.3767V18.7673C8.3151 19.0816 8.06367 19.333 7.74938 19.333C7.4351 19.333 7.18367 19.0816 7.18367 18.7673V18.3722C6.85142 18.2735 6.55061 18.0894 6.30816 17.8335C6.09265 17.6045 6.10612 17.2498 6.33061 17.0343C6.55959 16.8188 6.91428 16.8322 7.12979 17.0567C7.29142 17.2273 7.51142 17.3216 7.74489 17.3216C8.21183 17.3216 8.59346 16.94 8.59346 16.473C8.59346 16.0061 8.21183 15.6245 7.74489 15.6245C6.65387 15.6245 5.76489 14.7355 5.76489 13.6445C5.76489 12.751 6.36204 11.9922 7.17918 11.7498V11.3592C7.17918 11.0449 7.43061 10.7935 7.74489 10.7935C8.05918 10.7935 8.31061 11.0449 8.31061 11.3592V11.7543C8.64285 11.853 8.94367 12.0371 9.18612 12.293C9.40163 12.522 9.38816 12.8767 9.16367 13.0922C8.93469 13.3077 8.58 13.2943 8.36449 13.0698C8.20285 12.8992 7.98285 12.8049 7.74938 12.8049C7.28245 12.8049 6.90081 13.1865 6.90081 13.6535C6.90081 14.1204 7.28245 14.502 7.74938 14.502C8.8404 14.502 9.72938 15.391 9.72938 16.482C9.72489 17.3755 9.12775 18.1343 8.3151 18.3767Z" fill="#333333"/>
<path id="Vector_2" d="M5.49549 0C2.71631 0 0.466919 2.24939 0.466919 5.02857C0.466919 6.73469 1.31549 8.23878 2.61304 9.1502C3.98692 7.95592 5.78284 7.23306 7.74937 7.23306C7.94692 7.23306 8.14447 7.24204 8.33753 7.25551C8.37794 5.57184 9.00651 4.03184 10.0257 2.84204C9.20855 1.15837 7.48896 0 5.49549 0ZM6.42937 4.0498C6.63141 4.0498 6.79753 4.21592 6.79753 4.41796C6.79753 4.62 6.63141 4.78612 6.42937 4.78612H5.61222V5.1498H6.42937C6.63141 5.1498 6.79753 5.31592 6.79753 5.51796C6.79753 5.72 6.63141 5.88612 6.42937 5.88612H5.61222V6.3351C5.61222 6.53714 5.4461 6.70327 5.24406 6.70327C5.04202 6.70327 4.8759 6.53714 4.8759 6.3351V5.88612H4.05876C3.85671 5.88612 3.69059 5.72 3.69059 5.51796C3.69059 5.31592 3.85671 5.1498 4.05876 5.1498H4.8759V4.78612H4.05876C3.85671 4.78612 3.69059 4.62 3.69059 4.41796C3.69059 4.21592 3.85671 4.0498 4.05876 4.0498H4.50325L3.69508 2.78816C3.58284 2.61755 3.63223 2.38857 3.80733 2.27633C3.97794 2.16408 4.20692 2.21347 4.31916 2.38857L5.24855 3.83429L6.17794 2.38857C6.29018 2.21796 6.51467 2.16857 6.68978 2.27633C6.86039 2.38857 6.90978 2.61306 6.80202 2.78816L5.98937 4.0498H6.42937Z" fill="#333333"/>
<path id="Vector_3" d="M15.3865 1.27515C12.0057 1.27515 9.26693 4.00045 9.23999 7.37678C12.3649 7.97841 14.8298 10.4433 15.4404 13.5682C18.8122 13.5413 21.5331 10.798 21.5331 7.42168C21.5331 4.02739 18.7808 1.27515 15.3865 1.27515ZM17.5686 4.98821C17.4922 5.18127 17.2767 5.27555 17.0837 5.19923C16.8996 5.12739 16.702 5.09147 16.5045 5.09147C15.8759 5.09147 15.3237 5.45964 15.0139 6.01637H16.5988C16.8053 6.01637 16.9714 6.18249 16.9714 6.38902C16.9714 6.59555 16.8053 6.76168 16.5988 6.76168H14.7714C14.7579 6.85147 14.7579 7.21964 14.7714 7.30943H16.6033C16.8098 7.30943 16.9759 7.47556 16.9759 7.68209C16.9759 7.88862 16.8098 8.05474 16.6033 8.05474H15.0184C15.3282 8.60698 15.8804 8.97964 16.509 8.97964C16.6706 8.97964 16.8322 8.95719 16.9849 8.9078C17.1824 8.84494 17.3935 8.95719 17.4563 9.15474C17.5192 9.35229 17.4069 9.56331 17.2094 9.62617C16.9804 9.698 16.7469 9.73392 16.509 9.73392C15.4673 9.73392 14.5739 9.04249 14.1967 8.06372H13.5592C13.3526 8.06372 13.1865 7.8976 13.1865 7.69107C13.1865 7.48453 13.3526 7.31841 13.5592 7.31841H14.0216C14.0126 7.22862 14.0126 6.86045 14.0216 6.77066H13.5592C13.3526 6.77066 13.1865 6.60453 13.1865 6.398C13.1865 6.19147 13.3526 6.02535 13.5592 6.02535H14.1967C14.5694 5.04657 15.4673 4.35515 16.509 4.35515C16.8008 4.35515 17.0882 4.40902 17.3575 4.51678C17.5461 4.57964 17.6404 4.79515 17.5686 4.98821Z" fill="#333333"/>
</g>
</g>
</svg>
