<svg width="18" height="14" viewBox="0 0 18 14" fill="none" xmlns="http://www.w3.org/2000/svg">
<g id="Group">
<path id="Vector" d="M5.6652 10.8602C5.14271 10.8602 4.67176 10.5681 4.43801 10.0971L3.76083 8.72212C3.33803 9.28585 3.17645 10.0352 3.38269 10.7468C3.66801 11.7265 4.57552 12.4071 5.59303 12.4071C5.80957 12.4071 6.02271 12.3796 6.2324 12.3177C7.4527 11.9637 8.15395 10.6849 7.80334 9.46805C7.59707 8.76337 7.06771 8.20992 6.40771 7.95898L6.87521 8.85961C6.97833 9.05555 7.03334 9.27555 7.03334 9.49212C7.03334 9.88056 6.86488 10.2552 6.56926 10.5199C6.31489 10.7399 5.99521 10.8602 5.6652 10.8602Z" fill="#333333"/>
<path id="Vector_2" d="M2.51302 6.80755L1.84958 4.51817C1.70864 4.03005 1.29271 3.68974 0.84926 3.70692L0.30957 3.72066L1.56771 8.06223C1.74302 7.71848 1.96303 7.39535 2.22084 7.10661C2.3102 7.00349 2.40646 6.90379 2.51302 6.80755Z" fill="#333333"/>
<path id="Vector_3" d="M3.21623 3.04135C4.03922 3.04135 4.70639 2.37418 4.70639 1.55119C4.70639 0.728201 4.03922 0.0610352 3.21623 0.0610352C2.39324 0.0610352 1.72607 0.728201 1.72607 1.55119C1.72607 2.37418 2.39324 3.04135 3.21623 3.04135Z" fill="#333333"/>
<path id="Vector_4" d="M4.13198 3.71376C3.54416 3.8822 3.1626 4.41844 3.1626 4.99938C3.1626 5.3003 3.24547 5.48111 3.69541 7.03094L5.05322 9.79126C5.25258 10.1934 5.77509 10.2966 6.11196 10.0044C6.26321 9.87031 6.34573 9.68126 6.34573 9.4922C6.34573 9.38564 6.31822 9.27563 6.26665 9.17593L5.1151 6.96906L4.9329 6.33999C5.50698 6.08105 6.71352 6.44658 6.71352 6.44658L5.70634 4.40812C5.4176 3.82376 4.75416 3.53156 4.13198 3.71376Z" fill="#333333"/>
<path id="Vector_5" d="M9.73529 8.32005L10.079 8.22037L10.8903 10.6816C10.9831 11.0047 11.2753 11.2282 11.6087 11.2385C12.1347 11.2557 12.5231 10.7538 12.3787 10.2485L11.4953 7.5535C11.2994 6.866 10.5809 6.47412 9.89684 6.67006L8.84497 6.976C9.1956 7.33693 9.48434 7.75632 9.69404 8.22381C9.70779 8.25474 9.72497 8.28569 9.73529 8.32005Z" fill="#333333"/>
<path id="Vector_6" d="M7.27477 13.5477C8.91629 12.748 9.79635 10.8574 9.27124 9.04183C9.21625 8.85619 9.15094 8.67745 9.06844 8.50902C8.83469 7.99339 8.49438 7.54994 8.07844 7.19589C7.96499 7.09619 7.84469 7.00681 7.7175 6.92432C7.7175 6.92432 6.16031 7.01025 5.89219 6.96901L5.98499 7.14776C7.14343 7.29901 8.13343 8.13432 8.46344 9.27557C8.92063 10.8603 8.00624 12.5206 6.425 12.9778C6.15343 13.0568 5.87157 13.0946 5.59313 13.0946C4.27312 13.0946 3.09406 12.2078 2.72281 10.9393C2.42031 9.9012 2.71937 8.8012 3.43093 8.05183L3.05282 7.28183L3.04249 7.25088C2.93249 7.35056 2.82937 7.4537 2.73313 7.56371C2.32751 8.01744 2.03531 8.56401 1.88406 9.15525C1.71906 9.79464 1.71562 10.489 1.915 11.1731C2.40251 12.858 3.94735 13.9457 5.61921 13.9338L5.59383 13.9395H17.6904V9.10146L7.27477 13.5477Z" fill="#333333"/>
</g>
</svg>
