<svg width="22" height="22" viewBox="0 0 22 22" fill="none" xmlns="http://www.w3.org/2000/svg">
<g clip-path="url(#clip0_302_731)">
<path d="M12.2891 6.48828H9.71094C9.35468 6.48828 9.06641 6.77656 9.06641 7.13281V9.71094C9.06641 10.0672 9.35468 10.3555 9.71094 10.3555H12.2891C13.3553 10.3555 14.2227 9.4881 14.2227 8.42188C14.2227 7.35565 13.3553 6.48828 12.2891 6.48828Z" fill="#333333"/>
<path d="M20.0664 0H1.93359C0.867367 0 0 0.867367 0 1.93359V20.0664C0 21.1326 0.867367 22 1.93359 22H20.0664C21.1326 22 22 21.1326 22 20.0664V1.93359C22 0.867367 21.1326 0 20.0664 0ZM12.2891 12.9336H9.06641V17.4453C9.06641 17.8016 8.77813 18.0898 8.42188 18.0898H7.13281C6.77656 18.0898 6.48828 17.8016 6.48828 17.4453V4.55469C6.48828 4.19843 6.77656 3.91016 7.13281 3.91016H12.2891C14.7766 3.91016 16.8008 5.93437 16.8008 8.42188C16.8008 10.9094 14.7766 12.9336 12.2891 12.9336Z" fill="#333333"/>
</g>
<defs>
<clipPath id="clip0_302_731">
<rect width="22" height="22" fill="white"/>
</clipPath>
</defs>
</svg>
