<svg width="22" height="22" viewBox="0 0 22 22" fill="none" xmlns="http://www.w3.org/2000/svg">
<g clip-path="url(#clip0_302_764)">
<path d="M11.8879 8.71226L11.8843 8.72192H6.44862C5.65959 8.72192 4.92512 8.95946 4.31247 9.36646H2.57812C1.86734 9.36646 1.28906 8.78818 1.28906 8.07739C1.28906 7.3666 1.86734 6.78833 2.57812 6.78833H4.51172C4.86767 6.78833 5.15625 6.49975 5.15625 6.1438C5.15625 5.78785 4.86767 5.49927 4.51172 5.49927H2.57812C1.15655 5.49927 0 6.65581 0 8.07739C0 9.49897 1.15655 10.6555 2.57812 10.6555H3.09869C2.76783 11.2255 2.57812 11.8872 2.57812 12.5924V20.6672C2.57812 21.0232 2.8667 21.3118 3.22266 21.3118H5.80078C6.15673 21.3118 6.44531 21.0232 6.44531 20.6672V15.2277L12.332 15.7565V20.7102C12.332 21.0662 12.6206 21.3547 12.9766 21.3547H15.5547C15.9106 21.3547 16.1992 21.0662 16.1992 20.7102V14.5866L16.9934 10.6155L11.8879 8.71226Z" fill="#333333"/>
<path d="M21.3555 4.85479H19.4106C19.3059 3.87093 18.4732 3.09307 17.4474 3.09307H16.366L15.9713 1.15947C15.8422 0.527016 14.9612 0.45818 14.7358 1.06348L12.3376 7.50424L17.2494 9.33527L17.3721 8.72197H18.7773C20.5543 8.72197 22 7.27629 22 5.49932C22 5.14336 21.7114 4.85479 21.3555 4.85479Z" fill="#333333"/>
</g>
<defs>
<clipPath id="clip0_302_764">
<rect width="22" height="22" fill="white"/>
</clipPath>
</defs>
</svg>
