<svg width="22" height="22" viewBox="0 0 22 22" fill="none" xmlns="http://www.w3.org/2000/svg">
<g clip-path="url(#clip0_135_2473)">
<path d="M14.1778 17.1804H7.82221C7.41723 17.1804 7.08887 17.5087 7.08887 17.9138C7.08887 18.3188 7.41719 18.6471 7.82221 18.6471H14.1778C14.5827 18.6471 14.9111 18.3188 14.9111 17.9138C14.9111 17.5087 14.5828 17.1804 14.1778 17.1804Z" fill="#333333"/>
<path d="M14.1778 14.8674H7.82221C7.41723 14.8674 7.08887 15.1958 7.08887 15.6008C7.08887 16.0058 7.41719 16.3341 7.82221 16.3341H14.1778C14.5827 16.3341 14.9111 16.0058 14.9111 15.6008C14.9111 15.1958 14.5828 14.8674 14.1778 14.8674Z" fill="#333333"/>
<path d="M20.2889 5.75371H17.9556V1.50947C17.9556 1.10449 17.6272 0.776123 17.2222 0.776123H4.77778C4.3728 0.776123 4.04443 1.10445 4.04443 1.50947V5.75371H1.7111C0.767594 5.75371 0 6.52135 0 7.46485V14.8427C0 15.7862 0.767594 16.5538 1.7111 16.5538H4.04456V20.4903C4.04456 20.8953 4.37289 21.2237 4.77791 21.2237H17.2221C17.6271 21.2237 17.9554 20.8953 17.9554 20.4903V16.5538H20.2889C21.2324 16.5538 22 15.7862 22 14.8427V7.46485C22 6.52139 21.2324 5.75371 20.2889 5.75371ZM5.51109 2.24282H16.4889V5.75371H5.51109V2.24282ZM16.4887 19.757H5.51126C5.51126 19.6137 5.51126 13.9346 5.51126 13.7573H16.4888C16.4887 13.939 16.4887 19.6192 16.4887 19.757ZM17.2222 10.0598H15.3555C14.9505 10.0598 14.6222 9.7315 14.6222 9.32648C14.6222 8.92145 14.9505 8.59313 15.3555 8.59313H17.2222C17.6272 8.59313 17.9556 8.92145 17.9556 9.32648C17.9556 9.7315 17.6272 10.0598 17.2222 10.0598Z" fill="#333333"/>
</g>
<defs>
<clipPath id="clip0_135_2473">
<rect width="22" height="22" fill="white"/>
</clipPath>
</defs>
</svg>
