<svg width="22" height="22" viewBox="0 0 22 22" fill="none" xmlns="http://www.w3.org/2000/svg">
<g clip-path="url(#clip0_135_1210)">
<path d="M11 0C9.93377 0 9.06641 0.867367 9.06641 1.93359V4.55469H12.9336V1.93359C12.9336 0.867367 12.0662 0 11 0Z" fill="#333333"/>
<path d="M19.7441 17.4453H2.25586C1.00998 17.4453 0 18.4553 0 19.7012C0 20.9471 1.00998 22 2.25586 22H19.7441C20.99 22 22 20.9471 22 19.7012C22 18.4553 20.99 17.4453 19.7441 17.4453Z" fill="#333333"/>
<path d="M4.87695 16.1562H17.123C18.3689 16.1562 19.3789 15.1463 19.3789 13.9004C19.3789 12.6545 18.3689 11.6445 17.123 11.6445H4.87695C3.63107 11.6445 2.62109 12.6545 2.62109 13.9004C2.62109 15.1463 3.63107 16.1562 4.87695 16.1562Z" fill="#333333"/>
<path d="M5.19922 8.09961C5.19922 9.34549 6.2092 10.3555 7.45508 10.3555H14.5449C15.7908 10.3555 16.8008 9.34549 16.8008 8.09961C16.8008 6.85373 15.7908 5.84375 14.5449 5.84375H7.45508C6.2092 5.84375 5.19922 6.85373 5.19922 8.09961Z" fill="#333333"/>
</g>
<defs>
<clipPath id="clip0_135_1210">
<rect width="22" height="22" fill="white"/>
</clipPath>
</defs>
</svg>
