<svg width="40" height="40" viewBox="0 0 40 40" fill="none" xmlns="http://www.w3.org/2000/svg">
<path d="M36.6666 16.8333C36.8333 16 36.1666 15 35.3333 15L25.8333 13.6667L21.5 5C21.3333 4.66667 21.1666 4.5 20.8333 4.33333C20 3.83333 19 4.16667 18.5 5L14.3333 13.6667L4.83331 15C4.33331 15 3.99998 15.1667 3.83331 15.5C3.16665 16.1667 3.16665 17.1667 3.83331 17.8333L10.6666 24.5L8.99998 34C8.99998 34.3333 8.99998 34.6667 9.16665 35C9.66665 35.8333 10.6666 36.1667 11.5 35.6667L20 31.1667L28.5 35.6667C28.6666 35.8333 29 35.8333 29.3333 35.8333C29.5 35.8333 29.5 35.8333 29.6666 35.8333C30.5 35.6667 31.1666 34.8333 31 33.8333L29.3333 24.3333L36.1666 17.6667C36.5 17.5 36.6666 17.1667 36.6666 16.8333Z" fill="#196533"/>
</svg>
