<svg width="22" height="22" viewBox="0 0 22 22" fill="none" xmlns="http://www.w3.org/2000/svg">
<g clip-path="url(#clip0_302_737)">
<path d="M21.4278 18.7054L12.8011 10.0787L2.72239 0H1.93473L1.7739 0.408676C1.34941 1.48736 1.16804 2.59063 1.24946 3.59906C1.34228 4.74856 1.77897 5.74376 2.5124 6.4772L10.3804 14.3452L11.4182 13.3074L18.6922 21.4411C19.4157 22.1647 20.6612 22.2077 21.4278 21.4411C22.182 20.6868 22.182 19.4596 21.4278 18.7054Z" fill="#333333"/>
<path d="M6.73442 12.5229L0.572232 18.6851C-0.181955 19.4393 -0.181955 20.6665 0.572232 21.4207C1.28869 22.1371 2.52813 22.2004 3.30784 21.4207L9.47007 15.2585L6.73442 12.5229Z" fill="#333333"/>
<path d="M21.0656 3.66303L17.5701 7.15854L16.6581 6.24666L20.1537 2.75111L19.2418 1.83923L15.7463 5.33473L14.8344 4.42285L18.33 0.927343L17.4181 0.0155029L12.8587 4.57492C12.3009 5.13269 11.9679 5.8733 11.9208 6.66041C11.9089 6.85982 11.8637 7.05598 11.7887 7.24255L14.7505 10.2043C14.9371 10.1293 15.1333 10.0841 15.3326 10.0722C16.1197 10.0252 16.8603 9.69211 17.4181 9.13433L21.9775 4.57496L21.0656 3.66303Z" fill="#333333"/>
</g>
<defs>
<clipPath id="clip0_302_737">
<rect width="22" height="22" fill="white"/>
</clipPath>
</defs>
</svg>
