<svg width="22" height="22" viewBox="0 0 22 22" fill="none" xmlns="http://www.w3.org/2000/svg">
<path d="M2.40934 1.7207C1.89335 1.7207 1.64338 1.95681 1.5123 2.21898C1.38121 2.48116 1.37781 2.75492 1.37781 2.75492V16.5246C1.37781 16.5246 1.38121 16.799 1.5123 17.0612C1.64338 17.3233 1.89067 17.5594 2.40934 17.5594H19.6259C20.1433 17.5594 20.3919 17.3233 20.523 17.0612C20.654 16.799 20.6574 16.5246 20.6574 16.5246V2.75492C20.6574 2.75492 20.654 2.48116 20.523 2.21898C20.3919 1.95681 20.1392 1.7207 19.6259 1.7207H2.40934ZM4.47576 3.09787H17.5595C18.4142 3.09787 18.8586 3.55102 19.0718 3.97743C19.285 4.40383 19.2796 4.82134 19.2796 4.82134V14.4615C19.2796 14.4615 19.285 14.8763 19.0718 15.3027C18.8586 15.7291 18.414 16.1816 17.5595 16.1816H4.47576C3.61996 16.1816 3.17664 15.7291 2.96343 15.3027C2.75022 14.8763 2.75497 14.4615 2.75497 14.4615V4.82134C2.75497 4.82134 2.75023 4.40384 2.96343 3.97743C3.17664 3.55102 3.62399 3.09787 4.47576 3.09787ZM4.47576 3.78645C3.95842 3.78645 3.7098 4.02256 3.57872 4.28473C3.44763 4.54691 3.44356 4.82134 3.44356 4.82134V14.4615C3.44356 14.4615 3.44763 14.7326 3.57872 14.9947C3.7098 15.2569 3.9517 15.493 4.47576 15.493H17.5595C18.0755 15.493 18.3255 15.2569 18.4565 14.9947C18.5876 14.7326 18.591 14.4615 18.591 14.4615V4.82134C18.591 4.82134 18.5876 4.54691 18.4565 4.28473C18.3255 4.02256 18.0768 3.78645 17.5595 3.78645H4.47576ZM7.91934 6.19582C9.81673 6.19582 11.3602 7.74269 11.3602 9.64008C11.3602 11.5375 9.81673 13.0837 7.91934 13.0837C6.02195 13.0837 4.47576 11.5375 4.47576 9.64008C4.47576 7.74269 6.02195 6.19582 7.91934 6.19582ZM12.3951 6.54213H17.2139C17.3052 6.54178 17.3929 6.57771 17.4577 6.64203C17.5225 6.70634 17.5591 6.79376 17.5595 6.88507V8.26224C17.5597 8.30768 17.5509 8.3527 17.5335 8.39471C17.5162 8.43673 17.4908 8.4749 17.4587 8.50703C17.4265 8.53916 17.3884 8.56461 17.3463 8.58192C17.3043 8.59923 17.2593 8.60805 17.2139 8.60787H12.3951C12.3497 8.60805 12.3047 8.59923 12.2627 8.58192C12.2206 8.56461 12.1825 8.53916 12.1503 8.50703C12.1182 8.4749 12.0928 8.43673 12.0755 8.39471C12.0581 8.3527 12.0493 8.30768 12.0495 8.26224V6.88507C12.0499 6.79376 12.0865 6.70634 12.1513 6.64203C12.2161 6.57771 12.3038 6.54178 12.3951 6.54213ZM7.91934 6.88507C6.39409 6.88507 5.16434 8.11482 5.16434 9.64008C5.16434 11.1653 6.39409 12.3951 7.91934 12.3951C9.4446 12.3951 10.6717 11.1653 10.6717 9.64008C10.6717 8.11482 9.4446 6.88507 7.91934 6.88507ZM7.91195 7.22533C8.10715 7.22166 8.2666 7.38114 8.26296 7.57635V7.91929C8.26296 7.91929 8.50698 7.91387 8.76124 8.041C9.01551 8.16814 9.29449 8.44469 9.29449 8.95351C9.29449 9.41268 8.60591 9.41078 8.60591 8.95351C8.60591 8.77509 8.5433 8.70399 8.45326 8.65898C8.36324 8.61397 8.26296 8.60787 8.26296 8.60787H7.57438C7.57438 8.60787 7.47343 8.61397 7.38341 8.65898C7.29338 8.70399 7.22874 8.77374 7.22874 8.95351C7.22874 9.12655 7.29337 9.20303 7.38341 9.24804C7.47343 9.29305 7.57438 9.29646 7.57438 9.29646H8.26296C8.26296 9.29646 8.50698 9.29171 8.76124 9.41884C9.01551 9.54597 9.29449 9.82119 9.29449 10.3287C9.29449 10.8388 9.01551 11.114 8.76124 11.2412C8.50698 11.3683 8.26296 11.3629 8.26296 11.3629V11.7058C8.26296 12.165 7.57438 12.165 7.57438 11.7058V11.3629C7.06825 11.3629 6.7917 11.0832 6.66456 10.829C6.53742 10.5747 6.53949 10.3287 6.53949 10.3287C6.53949 9.86949 7.22874 9.86949 7.22874 10.3287C7.22874 10.3287 7.23417 10.4289 7.27918 10.519C7.32419 10.609 7.39461 10.6743 7.57438 10.6743H8.26296C8.26296 10.6743 8.36324 10.6682 8.45326 10.6232C8.54329 10.5782 8.60591 10.5098 8.60591 10.3287C8.60591 10.1529 8.5433 10.0812 8.45326 10.0361C8.36324 9.99113 8.26296 9.98571 8.26296 9.98571H7.57438C7.57438 9.98571 7.33036 9.99046 7.0761 9.86333C6.82183 9.7362 6.53949 9.45426 6.53949 8.95351C6.53949 8.44738 6.82183 8.16814 7.0761 8.041C7.33036 7.91387 7.57438 7.91929 7.57438 7.91929V7.57635C7.57081 7.38613 7.72173 7.22878 7.91195 7.22533ZM12.7381 7.23071V7.91929H16.8709V7.23071H12.7381ZM12.3608 9.29646C12.3723 9.29612 12.3837 9.29635 12.3951 9.29715H13.0837C13.1737 9.29914 13.2593 9.33629 13.3223 9.40064C13.3852 9.46499 13.4205 9.55143 13.4205 9.64144C13.4205 9.73145 13.3852 9.81788 13.3223 9.88223C13.2593 9.94658 13.1737 9.98373 13.0837 9.98573H12.3951C12.305 9.98841 12.2175 9.9557 12.1512 9.89461C12.0849 9.83352 12.0452 9.7489 12.0405 9.65887C12.0358 9.56885 12.0666 9.48058 12.1262 9.41297C12.1859 9.34536 12.2696 9.30378 12.3595 9.29715C12.3599 9.29692 12.3604 9.29669 12.3608 9.29646ZM14.4266 9.29646C14.4382 9.2961 14.4499 9.29633 14.4616 9.29715H15.1501C15.2401 9.29914 15.3258 9.33629 15.3887 9.40064C15.4516 9.46499 15.4869 9.55143 15.4869 9.64144C15.4869 9.73145 15.4516 9.81788 15.3887 9.88223C15.3258 9.94658 15.2401 9.98373 15.1501 9.98573H14.4616C14.3714 9.98841 14.2839 9.9557 14.2176 9.89461C14.1513 9.83352 14.1116 9.7489 14.1069 9.65887C14.1023 9.56885 14.133 9.48058 14.1927 9.41297C14.2523 9.34536 14.336 9.30378 14.4259 9.29715C14.4261 9.29692 14.4264 9.29669 14.4266 9.29646ZM16.4917 9.29715C16.5026 9.29662 16.5136 9.29662 16.5246 9.29715H17.2139C17.3039 9.29914 17.3895 9.33629 17.4524 9.40064C17.5154 9.46499 17.5506 9.55143 17.5506 9.64144C17.5506 9.73145 17.5154 9.81788 17.4524 9.88223C17.3895 9.94658 17.3039 9.98373 17.2139 9.98573H16.5246C16.4345 9.98802 16.3472 9.95495 16.2812 9.89362C16.2152 9.83228 16.1758 9.74754 16.1715 9.65755C16.1672 9.56755 16.1983 9.47944 16.2581 9.41209C16.318 9.34473 16.4018 9.30347 16.4917 9.29715ZM12.3951 10.6716H13.0837C13.1737 10.6736 13.2593 10.7108 13.3223 10.7751C13.3852 10.8395 13.4205 10.9259 13.4205 11.0159C13.4205 11.1059 13.3852 11.1924 13.3223 11.2567C13.2593 11.3211 13.1737 11.3582 13.0837 11.3602H12.3951C12.3493 11.3612 12.3037 11.3531 12.261 11.3362C12.2184 11.3194 12.1795 11.2942 12.1467 11.2621C12.1139 11.23 12.0879 11.1917 12.0701 11.1495C12.0523 11.1072 12.0431 11.0618 12.0431 11.0159C12.0431 10.97 12.0523 10.9246 12.0701 10.8824C12.0879 10.8401 12.1139 10.8018 12.1467 10.7697C12.1795 10.7376 12.2184 10.7124 12.261 10.6956C12.3037 10.6788 12.3493 10.6706 12.3951 10.6716ZM14.4616 10.6716H15.1501C15.2401 10.6736 15.3258 10.7108 15.3887 10.7751C15.4516 10.8395 15.4869 10.9259 15.4869 11.0159C15.4869 11.1059 15.4516 11.1924 15.3887 11.2567C15.3258 11.3211 15.2401 11.3582 15.1501 11.3602H14.4616C14.4157 11.3612 14.3701 11.3531 14.3274 11.3362C14.2848 11.3194 14.2459 11.2942 14.2131 11.2621C14.1803 11.23 14.1543 11.1917 14.1365 11.1495C14.1187 11.1072 14.1095 11.0618 14.1095 11.0159C14.1095 10.97 14.1187 10.9246 14.1365 10.8824C14.1543 10.8401 14.1803 10.8018 14.2131 10.7697C14.2459 10.7376 14.2848 10.7124 14.3274 10.6956C14.3701 10.6788 14.4157 10.6706 14.4616 10.6716ZM16.5246 10.6716H17.2139C17.3039 10.6736 17.3895 10.7108 17.4524 10.7751C17.5154 10.8395 17.5506 10.9259 17.5506 11.0159C17.5506 11.1059 17.5154 11.1924 17.4524 11.2567C17.3895 11.3211 17.3039 11.3582 17.2139 11.3602H16.5246C16.4788 11.3612 16.4332 11.3531 16.3905 11.3362C16.3478 11.3194 16.309 11.2942 16.2762 11.2621C16.2434 11.23 16.2173 11.1917 16.1995 11.1495C16.1818 11.1072 16.1726 11.0618 16.1726 11.0159C16.1726 10.97 16.1818 10.9246 16.1995 10.8824C16.2173 10.8401 16.2434 10.8018 16.2762 10.7697C16.309 10.7376 16.3478 10.7124 16.3905 10.6956C16.4332 10.6788 16.4788 10.6706 16.5246 10.6716ZM12.3951 12.0495H13.0837C13.1737 12.0515 13.2593 12.0886 13.3223 12.153C13.3852 12.2173 13.4205 12.3037 13.4205 12.3938C13.4205 12.4838 13.3852 12.5702 13.3223 12.6345C13.2593 12.6989 13.1737 12.736 13.0837 12.738H12.3951C12.3493 12.7391 12.3037 12.7309 12.261 12.7141C12.2184 12.6972 12.1795 12.672 12.1467 12.6399C12.1139 12.6079 12.0879 12.5696 12.0701 12.5273C12.0523 12.485 12.0431 12.4396 12.0431 12.3938C12.0431 12.3479 12.0523 12.3025 12.0701 12.2602C12.0879 12.2179 12.1139 12.1796 12.1467 12.1476C12.1795 12.1155 12.2184 12.0903 12.261 12.0734C12.3037 12.0566 12.3493 12.0484 12.3951 12.0495ZM14.4616 12.0495H15.1501C15.2401 12.0515 15.3258 12.0886 15.3887 12.153C15.4516 12.2173 15.4869 12.3037 15.4869 12.3938C15.4869 12.4838 15.4516 12.5702 15.3887 12.6345C15.3258 12.6989 15.2401 12.736 15.1501 12.738H14.4616C14.4157 12.7391 14.3701 12.7309 14.3274 12.7141C14.2848 12.6972 14.2459 12.672 14.2131 12.6399C14.1803 12.6079 14.1543 12.5696 14.1365 12.5273C14.1187 12.485 14.1095 12.4396 14.1095 12.3938C14.1095 12.3479 14.1187 12.3025 14.1365 12.2602C14.1543 12.2179 14.1803 12.1796 14.2131 12.1476C14.2459 12.1155 14.2848 12.0903 14.3274 12.0734C14.3701 12.0566 14.4157 12.0484 14.4616 12.0495ZM16.5246 12.0495H17.2139C17.3039 12.0515 17.3895 12.0886 17.4524 12.153C17.5154 12.2173 17.5506 12.3037 17.5506 12.3938C17.5506 12.4838 17.5154 12.5702 17.4524 12.6345C17.3895 12.6989 17.3039 12.736 17.2139 12.738H16.5246C16.4788 12.7391 16.4332 12.7309 16.3905 12.7141C16.3478 12.6972 16.309 12.672 16.2762 12.6399C16.2434 12.6079 16.2173 12.5696 16.1995 12.5273C16.1818 12.485 16.1726 12.4396 16.1726 12.3938C16.1726 12.3479 16.1818 12.3025 16.1995 12.2602C16.2173 12.2179 16.2434 12.1796 16.2762 12.1476C16.309 12.1155 16.3478 12.0903 16.3905 12.0734C16.4332 12.0566 16.4788 12.0484 16.5246 12.0495Z" fill="#333333"/>
<path d="M3.4436 18.248H6.88517V19.2796C6.88517 19.2796 6.88109 19.5513 6.75001 19.8135C6.61892 20.0757 6.37299 20.3145 5.85297 20.3145H4.47581C3.95444 20.3145 3.70985 20.0757 3.57876 19.8135C3.44768 19.5513 3.4436 19.2796 3.4436 19.2796V18.248Z" fill="#333333"/>
<path d="M15.1501 18.248H18.591V19.2796C18.591 19.2796 18.5876 19.5513 18.4566 19.8135C18.3255 20.0757 18.0809 20.3145 17.5595 20.3145H16.1817C15.6617 20.3145 15.4157 20.0757 15.2846 19.8135C15.1535 19.5513 15.1501 19.2796 15.1501 19.2796V18.248Z" fill="#333333"/>
</svg>
