<svg width="22" height="22" viewBox="0 0 22 22" fill="none" xmlns="http://www.w3.org/2000/svg">
<g clip-path="url(#clip0_134_709)">
<path d="M5.1935 2.80237C3.78817 2.80237 2.6449 3.94568 2.6449 5.35097C2.6449 6.75627 3.78821 7.89958 5.1935 7.89958C6.5988 7.89958 7.74211 6.75631 7.74211 5.35097C7.74211 3.94564 6.59884 2.80237 5.1935 2.80237Z" fill="#333333"/>
<path d="M15.9028 19.893L13.6211 13.4577H9.19952L7.17484 8.65216H3.87063L1.35102 15.505C1.24919 15.7821 1.228 16.0777 1.28288 16.3596H0V17.6487H6.63609H7.02419H10.9109L13.0598 21.2329C13.3528 21.7217 13.8759 21.9998 14.4166 21.9998C14.6303 21.9998 14.8469 21.9564 15.053 21.8652C15.8039 21.5332 16.1772 20.6669 15.9028 19.893ZM4.53514 16.3596L5.30269 15.1291L5.95392 16.3596H4.53514Z" fill="#333333"/>
<path d="M15.4561 4.841C15.4561 4.02408 15.1257 3.57578 14.8845 3.24845C14.6848 2.97749 14.5642 2.81391 14.5642 2.42066C14.5642 2.02736 14.6848 1.86382 14.8845 1.59278C15.1257 1.26544 15.4561 0.817148 15.4561 0.000183105H14.167C14.167 0.393433 14.0465 0.557015 13.8468 0.828019C13.6056 1.15535 13.2751 1.60365 13.2751 2.42061C13.2751 3.23753 13.6055 3.68583 13.8468 4.01316C14.0465 4.28412 14.167 4.44771 14.167 4.84096C14.167 5.23434 14.0465 5.39792 13.8468 5.66896C13.6055 5.99643 13.2751 6.44477 13.2751 7.26177C13.2751 8.07878 13.6055 8.52712 13.8468 8.85445C14.0465 9.1255 14.167 9.28912 14.167 9.68246H15.4561C15.4561 8.86545 15.1258 8.41712 14.8845 8.08974C14.6848 7.81869 14.5642 7.65511 14.5642 7.26173C14.5642 6.86835 14.6848 6.70481 14.8845 6.43372C15.1257 6.10634 15.4561 5.65801 15.4561 4.841Z" fill="#333333"/>
<path d="M18.7281 4.84093C18.7281 4.02401 18.3977 3.57572 18.1564 3.24838C17.9568 2.97742 17.8362 2.81384 17.8362 2.42059C17.8362 2.02729 17.9568 1.86376 18.1565 1.59271C18.3977 1.2655 18.7281 0.817209 18.7281 0.000244141H17.439C17.439 0.393494 17.3185 0.557076 17.1188 0.82808C16.8775 1.15542 16.5471 1.60371 16.5471 2.42067C16.5471 3.2376 16.8775 3.68589 17.1188 4.01322C17.3185 4.28419 17.439 4.44777 17.439 4.84102C17.439 5.2344 17.3185 5.39798 17.1187 5.66903C16.8775 5.9964 16.5471 6.44474 16.5471 7.26171C16.5471 8.07867 16.8775 8.52705 17.1187 8.85438C17.3185 9.12543 17.439 9.28906 17.439 9.68239H18.7281C18.7281 8.86539 18.3977 8.41705 18.1565 8.08967C17.9568 7.81862 17.8362 7.65504 17.8362 7.26166C17.8362 6.86828 17.9568 6.70474 18.1565 6.43365C18.3977 6.10628 18.7281 5.65794 18.7281 4.84093Z" fill="#333333"/>
<path d="M22 4.84106C22 4.02414 21.6696 3.57585 21.4283 3.24851C21.2287 2.97755 21.1081 2.81397 21.1081 2.42072C21.1081 2.02742 21.2287 1.86388 21.4283 1.59284C21.6696 1.2655 22 0.817209 22 0.000244141H20.7109C20.7109 0.393494 20.5904 0.557076 20.3907 0.82808C20.1495 1.15542 19.819 1.60371 19.819 2.42067C19.819 3.2376 20.1494 3.68589 20.3907 4.01322C20.5904 4.28419 20.7109 4.44777 20.7109 4.84102C20.7109 5.2344 20.5904 5.39798 20.3906 5.66903C20.1494 5.9964 19.819 6.44474 19.819 7.26171C19.819 8.07867 20.1494 8.52705 20.3906 8.85438C20.5904 9.12543 20.7109 9.28906 20.7109 9.68239H22C22 8.86539 21.6697 8.41705 21.4284 8.08967C21.2287 7.81862 21.1081 7.65504 21.1081 7.26166C21.1081 6.86828 21.2287 6.70474 21.4284 6.43365C21.6697 6.1064 22 5.65807 22 4.84106Z" fill="#333333"/>
</g>
<defs>
<clipPath id="clip0_134_709">
<rect width="22" height="22" fill="white"/>
</clipPath>
</defs>
</svg>
