<svg width="22" height="22" viewBox="0 0 22 22" fill="none" xmlns="http://www.w3.org/2000/svg">
<g clip-path="url(#clip0_302_717)">
<path d="M7.89479 3.67474C8.17575 3.46875 8.16765 3.48444 10.1431 2.36714C10.1474 2.36498 10.1513 2.36239 10.1556 2.36024C9.11962 0.902599 7.42831 0.00628662 5.59473 0.00628662C2.51002 0.00628662 0 2.51631 0 5.60102V21.7782C0 21.8972 0.0965724 21.9937 0.215563 21.9937H2.3712C2.49019 21.9937 2.58676 21.8972 2.58676 21.7782V5.60102C2.58676 3.93557 3.9474 2.58184 5.61542 2.59305C6.50958 2.59908 7.33433 3.01038 7.89479 3.67474Z" fill="#333333"/>
<path d="M12.1674 15.1646C12.5197 15.1058 12.7576 14.7726 12.6989 14.4203L12.599 13.8213C12.5403 13.469 12.2071 13.2311 11.8548 13.2898C11.5025 13.3485 11.2645 13.6818 11.3232 14.034L11.4231 14.633C11.4818 14.9853 11.815 15.2233 12.1674 15.1646Z" fill="#333333"/>
<path d="M15.4472 13.3678C15.7587 13.193 15.8695 12.7987 15.6947 12.4873L15.4151 11.9891C15.2403 11.6776 14.8461 11.5668 14.5346 11.7417C14.2232 11.9165 14.1124 12.3107 14.2872 12.6222L14.5668 13.1203C14.7418 13.4321 15.1362 13.5424 15.4472 13.3678Z" fill="#333333"/>
<path d="M18.6897 11.504C18.9233 11.2339 18.8938 10.8255 18.6237 10.5918L18.1644 10.1945C17.8943 9.96089 17.4859 9.99043 17.2522 10.2605C17.0186 10.5306 17.0481 10.939 17.3182 11.1727L17.7775 11.57C18.0477 11.8037 18.456 11.7741 18.6897 11.504Z" fill="#333333"/>
<path d="M12.8755 17.6593C12.824 17.3059 12.4957 17.0612 12.1423 17.1126C11.7888 17.1641 11.5441 17.4924 11.5956 17.8458L11.6861 18.467C11.7377 18.8208 12.0663 19.0651 12.4193 19.0136C12.7728 18.9621 13.0175 18.6339 12.966 18.2804L12.8755 17.6593Z" fill="#333333"/>
<path d="M15.7133 15.8949C15.5795 15.5637 15.2025 15.4038 14.8714 15.5376C14.5403 15.6715 14.3804 16.0484 14.5142 16.3795L14.7356 16.9273C14.8695 17.2585 15.2465 17.4183 15.5775 17.2845C15.9086 17.1507 16.0685 16.7737 15.9347 16.4426L15.7133 15.8949Z" fill="#333333"/>
<path d="M18.5112 14.1363C18.2983 13.8496 17.8933 13.7897 17.6065 14.0027C17.3198 14.2156 17.2599 14.6206 17.4729 14.9074L17.8251 15.3817C18.038 15.6684 18.4431 15.7282 18.7298 15.5153C19.0165 15.3024 19.0764 14.8973 18.8634 14.6106L18.5112 14.1363Z" fill="#333333"/>
<path d="M21.7663 12.8097L21.2832 12.4088C21.0084 12.1807 20.6007 12.2187 20.3726 12.4935C20.1445 12.7683 20.1824 13.176 20.4572 13.4041L20.9402 13.805C21.2151 14.0331 21.6228 13.9952 21.8509 13.7204C22.079 13.4455 22.0411 13.0378 21.7663 12.8097Z" fill="#333333"/>
<path d="M8.00944 9.10175L15.2097 5.0289L15.004 4.66503C14.1648 3.18019 12.2788 2.64542 10.7799 3.4928C8.83613 4.59191 8.80521 4.59273 8.53498 4.8142C7.41371 5.73009 7.03393 7.37837 7.80336 8.73745L8.00944 9.10175Z" fill="#333333"/>
<path d="M17.79 6.46972L17.5045 5.9653C17.3279 5.6514 16.9278 5.54297 16.6173 5.7187C16.2434 5.92969 8.05094 10.5636 7.87706 10.662C7.56743 10.8366 7.45305 11.2342 7.63089 11.5493L7.91629 12.0541C8.15479 12.4757 8.68896 12.6238 9.11095 12.3856L17.4584 7.66437C17.8795 7.42574 18.0288 6.89188 17.79 6.46972Z" fill="#333333"/>
</g>
<defs>
<clipPath id="clip0_302_717">
<rect width="22" height="22" fill="white"/>
</clipPath>
</defs>
</svg>
