<svg width="22" height="22" viewBox="0 0 22 22" fill="none" xmlns="http://www.w3.org/2000/svg">
<g clip-path="url(#clip0_302_792)">
<path fill-rule="evenodd" clip-rule="evenodd" d="M7.38699 18.5869L11.8848 19.9923C13.3027 18.5841 9.58291 17.4439 8.57034 17.0866C8.57034 17.0866 7.16089 17.4432 7.38699 18.5869Z" fill="#333333"/>
<path fill-rule="evenodd" clip-rule="evenodd" d="M13.832 5.19558C14.2832 4.93508 14.8655 5.09109 15.126 5.54226L16.7367 8.33213L19.7646 7.52083C20.2679 7.38598 20.7899 7.68739 20.9248 8.19063C21.0596 8.69388 20.7582 9.2159 20.2549 9.35079L16.4927 10.3589C15.616 10.5938 15.3441 9.70899 15.003 9.11825L13.4853 6.48952C13.2248 6.03835 13.3808 5.45604 13.832 5.19558Z" fill="#333333"/>
<path d="M18.0251 4.13516C19.167 4.13516 20.0927 3.20947 20.0927 2.06758C20.0927 0.925688 19.167 0 18.0251 0C16.8832 0 15.9575 0.925688 15.9575 2.06758C15.9575 3.20947 16.8832 4.13516 18.0251 4.13516Z" fill="#333333"/>
<path d="M0.972398 16.0092C2.78988 16.5435 4.7856 17.1996 6.8272 17.8707C10.3414 19.0259 13.9916 20.2259 16.9815 20.8921C17.7549 21.0644 18.4762 21.1171 19.071 20.9282C19.6275 20.7516 20.0948 20.3438 20.4185 19.5884L21.2967 19.9621C20.8498 21.0049 20.1752 21.577 19.3587 21.8363C18.5806 22.0833 17.6978 22.0279 16.7759 21.8226C13.7192 21.1414 10.0574 19.9377 6.53198 18.7787C4.48703 18.1065 2.48802 17.4493 0.703369 16.9247L0.972398 16.0092Z" fill="#333333"/>
<path d="M19.5849 9.37548C19.6251 9.11543 19.4469 8.87203 19.1869 8.83178C18.9269 8.79154 18.6835 8.96972 18.6433 9.22972L16.9799 19.996C16.9397 20.256 17.1179 20.4995 17.3779 20.5397C17.6379 20.5799 17.8813 20.4018 17.9216 20.1417L19.5849 9.37548Z" fill="#333333"/>
<path d="M16.7318 18.7989C16.4708 18.7597 16.2273 18.9395 16.1881 19.2006C16.1489 19.4616 16.3288 19.705 16.5898 19.7443L18.3662 20.0156C18.6273 20.0548 18.8707 19.875 18.91 19.6139C18.9491 19.3529 18.7693 19.1094 18.5082 19.0702L16.7318 18.7989Z" fill="#333333"/>
<path fill-rule="evenodd" clip-rule="evenodd" d="M17.2739 6.34122C17.9375 4.88864 15.6598 3.26995 14.2291 3.56521C11.8116 4.0644 7.38774 8.40408 9.26161 8.9257L13.4024 10.469C13.8408 10.5325 14.3501 10.1772 14.8588 9.64499C14.799 9.53034 14.7398 9.41595 14.6767 9.30658L13.159 6.6779C12.795 6.04748 13.0132 5.23328 13.6436 4.8693C14.2739 4.50537 15.0882 4.7235 15.4522 5.35392L16.5962 7.33543C16.8717 6.9208 17.1054 6.563 17.2739 6.34122Z" fill="#333333"/>
<path fill-rule="evenodd" clip-rule="evenodd" d="M9.18757 9.30017C9.06531 10.1773 9.41133 10.6105 9.91326 11.3634L11.4586 13.6813C11.8181 14.21 11.3666 14.587 10.9484 14.92C10.1421 15.5624 9.33531 16.3806 8.57019 17.0866C8.92778 17.2128 9.62296 17.4366 10.3102 17.7353L13.0736 15.2011C13.2968 14.9964 13.7856 14.5587 13.8162 14.2313C13.8316 14.0664 13.7564 13.8631 13.6967 13.7126C13.5616 13.372 13.3974 13.0366 13.2536 12.6984L12.3016 10.4608L9.18757 9.30017Z" fill="#333333"/>
<path fill-rule="evenodd" clip-rule="evenodd" d="M11.4913 18.3678L14.9084 15.9774C16.33 14.9829 15.8485 14.624 15.1804 13.0495L14.1713 10.6742C13.9145 10.8065 13.6351 10.8834 13.3485 10.8419L13.3086 10.8361L12.7882 10.6422L13.6002 12.5509C14.2684 14.1254 14.607 14.3061 13.3283 15.4787L10.6821 17.9055C10.9747 18.0468 11.2538 18.2016 11.4913 18.3678Z" fill="#333333"/>
<path fill-rule="evenodd" clip-rule="evenodd" d="M12.2832 20.1134L13.1669 20.3821C14.2574 19.2991 13.2785 18.9018 12.3076 18.6136C12.4542 18.8075 12.5532 19.0209 12.5752 19.2539C12.6061 19.5811 12.4817 19.8699 12.2832 20.1134Z" fill="#333333"/>
</g>
<defs>
<clipPath id="clip0_302_792">
<rect width="22" height="22" fill="white"/>
</clipPath>
</defs>
</svg>
