<svg width="20" height="18" viewBox="0 0 20 18" fill="none" xmlns="http://www.w3.org/2000/svg">
<g id="solid">
<path id="Vector" d="M5.34814 6.56438V7.81714C5.65421 7.46823 5.86758 7.04793 5.96861 6.59493C5.76456 6.55318 5.55532 6.54288 5.34814 6.56438Z" fill="#333333"/>
<path id="Vector_2" d="M16.8772 7.02286C16.8541 7.00875 16.8328 6.99198 16.8137 6.97289L14.4293 4.58838L14.6169 5.80796C14.6247 5.85858 14.621 5.91029 14.6062 5.95932C14.5915 6.00834 14.5659 6.05345 14.5315 6.09134C14.497 6.12923 14.4545 6.15894 14.4071 6.17831C14.3597 6.19767 14.3086 6.2062 14.2575 6.20327C14.145 6.19683 14.0348 6.19352 13.9299 6.19352C13.2514 6.19241 12.5783 6.31425 11.9433 6.55313C11.876 7.68189 11.4985 8.7702 10.8525 9.69825C10.2065 10.6263 9.31688 11.3581 8.28168 11.8131C8.28168 11.8228 8.28125 11.8325 8.28125 11.8423C8.28125 14.957 10.8152 17.4909 13.9299 17.4909C17.0445 17.4909 19.5785 14.957 19.5785 11.8423C19.5818 10.8743 19.3348 9.92184 18.8615 9.07741C18.3882 8.23297 17.7047 7.52522 16.8772 7.02286ZM15.6423 13.7818C15.6012 13.8005 15.5568 13.8109 15.5117 13.8125C15.4666 13.814 15.4216 13.8066 15.3793 13.7908C15.337 13.7749 15.2983 13.7509 15.2653 13.7201C15.2323 13.6893 15.2057 13.6523 15.1871 13.6112L14.8099 12.7813H12.7526L12.3754 13.611C12.3377 13.694 12.2686 13.7586 12.1832 13.7907C12.0978 13.8227 12.0032 13.8194 11.9202 13.7817C11.8372 13.744 11.7726 13.6748 11.7406 13.5895C11.7086 13.5041 11.7118 13.4095 11.7496 13.3265L13.4683 9.54525C13.4956 9.48517 13.5397 9.43421 13.5951 9.39848C13.6506 9.36274 13.7152 9.34374 13.7812 9.34374C13.8473 9.34374 13.9119 9.36274 13.9674 9.39848C14.0228 9.43421 14.0669 9.48517 14.0942 9.54525L15.8129 13.3265C15.8316 13.3676 15.842 13.412 15.8436 13.4571C15.8451 13.5022 15.8377 13.5472 15.8219 13.5895C15.806 13.6317 15.782 13.6705 15.7512 13.7035C15.7204 13.7364 15.6834 13.763 15.6423 13.7817V13.7818Z" fill="#333333"/>
<path id="Vector_3" d="M11.2665 6.19576C11.2663 5.24572 11.0177 4.31223 10.5452 3.48802C10.0727 2.66381 9.39275 1.97755 8.57296 1.4974C7.75318 1.01725 6.82204 0.759925 5.87204 0.750974C4.92203 0.742023 3.98622 0.98176 3.15753 1.44638C2.32884 1.91099 1.63612 2.58432 1.14817 3.39948C0.660212 4.21464 0.394004 5.14328 0.37598 6.09315C0.357957 7.04303 0.588746 7.98109 1.04543 8.81418C1.50211 9.64727 2.16878 10.3464 2.97925 10.8421C3.0023 10.8562 3.0236 10.873 3.04271 10.8921L5.3213 13.1707L5.14543 12.0277C5.13767 11.9771 5.14131 11.9254 5.15609 11.8764C5.17087 11.8274 5.19641 11.7823 5.23085 11.7444C5.26529 11.7065 5.30775 11.6768 5.35515 11.6574C5.40254 11.6381 5.45366 11.6295 5.50478 11.6324C5.61345 11.6386 5.71962 11.6418 5.82073 11.6418C7.26458 11.6402 8.64881 11.0658 9.66974 10.0449C10.6907 9.02388 11.2649 7.63961 11.2665 6.19576ZM7.43477 8.7744C7.3703 8.83888 7.28286 8.8751 7.19168 8.8751C7.10051 8.87511 7.01307 8.83889 6.9486 8.77442C6.88412 8.70996 6.8479 8.62252 6.8479 8.53134C6.84789 8.44017 6.88411 8.35273 6.94857 8.28825C7.03074 8.20613 7.09505 8.10791 7.13747 7.99975C7.17988 7.8916 7.19948 7.77585 7.19505 7.65976C7.19061 7.54367 7.16223 7.42975 7.11168 7.32515C7.06113 7.22055 6.98951 7.12753 6.90131 7.05192C6.81206 6.9754 6.7165 6.90656 6.61565 6.84614C6.46136 7.45094 6.1463 8.00272 5.70386 8.44299C5.56895 8.57788 5.4071 8.68281 5.22889 8.75092C5.05068 8.81903 4.86011 8.84878 4.66962 8.83824C4.47913 8.82769 4.293 8.77709 4.12339 8.68973C3.95379 8.60238 3.80451 8.48023 3.68531 8.33127C3.57014 8.1873 3.48552 8.02137 3.43662 7.84361C3.38773 7.66585 3.37557 7.47998 3.40091 7.29736C3.42624 7.11475 3.48853 6.93921 3.58397 6.78147C3.67941 6.62373 3.806 6.4871 3.95602 6.37993C4.17214 6.22562 4.40939 6.10331 4.66045 6.01675V4.87503H3.28545C3.19428 4.87503 3.10684 4.83882 3.04238 4.77435C2.97791 4.70988 2.9417 4.62245 2.9417 4.53128C2.9417 4.44011 2.97791 4.35268 3.04238 4.28821C3.10684 4.22375 3.19428 4.18753 3.28545 4.18753H4.66045V3.15628C4.66045 3.06511 4.69666 2.97768 4.76113 2.91321C4.82559 2.84875 4.91303 2.81253 5.00419 2.81253C5.09536 2.81253 5.1828 2.84875 5.24726 2.91321C5.31173 2.97768 5.34794 3.06511 5.34794 3.15628V4.18753H7.06669C7.15786 4.18753 7.2453 4.22375 7.30976 4.28821C7.37423 4.35268 7.41044 4.44011 7.41044 4.53128C7.41044 4.62245 7.37423 4.70988 7.30976 4.77435C7.2453 4.83882 7.15786 4.87503 7.06669 4.87503H5.34794V5.87388C5.57762 5.85624 5.80859 5.86755 6.03544 5.90753V5.56253C6.03544 5.47136 6.07166 5.38393 6.13613 5.31946C6.20059 5.255 6.28803 5.21878 6.37919 5.21878C6.47036 5.21878 6.5578 5.255 6.62226 5.31946C6.68673 5.38393 6.72294 5.47136 6.72294 5.56253V5.98217C6.72294 6.02943 6.72204 6.07691 6.72015 6.12396C6.94703 6.2302 7.15842 6.36677 7.34853 6.52993C7.50865 6.66719 7.63867 6.83605 7.73046 7.02592C7.82224 7.2158 7.8738 7.42259 7.88189 7.63333C7.88999 7.84407 7.85445 8.05421 7.77751 8.25057C7.70057 8.44693 7.58388 8.62527 7.43477 8.7744Z" fill="#333333"/>
<path id="Vector_4" d="M4.08199 7.39168C4.06974 7.47934 4.07503 7.56857 4.09758 7.65417C4.12012 7.73977 4.15946 7.82003 4.21331 7.89028C4.26716 7.96054 4.33443 8.01939 4.41123 8.06341C4.48803 8.10742 4.57281 8.13573 4.66065 8.14668V6.75879C4.55409 6.81016 4.45211 6.87053 4.35583 6.93926C4.28157 6.99183 4.21893 7.05913 4.17182 7.13696C4.12471 7.2148 4.09413 7.30151 4.08199 7.39168Z" fill="#333333"/>
<path id="Vector_5" d="M13.0651 12.0938H14.4974L13.7812 10.5183L13.0651 12.0938Z" fill="#333333"/>
</g>
</svg>
