<svg width="22" height="22" viewBox="0 0 22 22" fill="none" xmlns="http://www.w3.org/2000/svg">
<path d="M12.7188 3.78125H15.4688C15.6511 3.78125 15.826 3.85368 15.9549 3.98261C16.0838 4.11155 16.1562 4.28641 16.1562 4.46875C16.1562 4.65109 16.0838 4.82595 15.9549 4.95489C15.826 5.08382 15.6511 5.15625 15.4688 5.15625H12.7188C12.5364 5.15625 12.3615 5.08382 12.2326 4.95489C12.1037 4.82595 12.0312 4.65109 12.0312 4.46875C12.0312 4.28641 12.1037 4.11155 12.2326 3.98261C12.3615 3.85368 12.5364 3.78125 12.7188 3.78125ZM15.5891 1.61906C15.5242 1.54286 15.4436 1.48159 15.3528 1.43946C15.262 1.39734 15.1632 1.37534 15.0631 1.375H13.1244C13.0243 1.37534 12.9255 1.39733 12.8347 1.43946C12.7439 1.48159 12.6633 1.54286 12.5984 1.61906C12.534 1.69516 12.4871 1.78448 12.4609 1.8807C12.4348 1.97692 12.4301 2.0777 12.4472 2.17594L12.5984 3.09375H15.5891L15.7403 2.17594C15.7574 2.0777 15.7527 1.97692 15.7265 1.8807C15.7004 1.78448 15.6535 1.69517 15.5891 1.61906ZM10.4132 9.03822C10.9411 8.5324 11.6439 8.25001 12.375 8.25001C13.1061 8.25001 13.8089 8.5324 14.3368 9.03822C14.7357 9.41506 15.2637 9.62501 15.8125 9.62501C16.3613 9.62501 16.8893 9.41506 17.2882 9.03822C17.4473 8.87934 17.6256 8.74106 17.8191 8.62664C17.6867 7.94635 17.2919 7.34551 16.72 6.95406C16.3247 6.68995 16.0322 6.29793 15.8916 5.84375H12.2959C12.1553 6.29793 11.8628 6.68996 11.4675 6.95406C11.1138 7.19336 10.8241 7.51558 10.6236 7.8926C10.4231 8.26962 10.3179 8.68998 10.3172 9.117C10.3484 9.0893 10.3832 9.06817 10.4132 9.03822ZM17.7753 9.52531C17.2467 10.0306 16.5437 10.3125 15.8125 10.3125C15.0813 10.3125 14.3783 10.0306 13.8497 9.52531C13.4515 9.14789 12.9237 8.93752 12.375 8.93752C11.8263 8.93752 11.2985 9.14789 10.9003 9.52531C10.7251 9.69784 10.5274 9.84585 10.3125 9.96531V14.0112C10.7503 13.8383 11.2168 13.7496 11.6875 13.75C11.7786 13.7503 11.8659 13.7866 11.9303 13.851C11.9947 13.9154 12.031 14.0027 12.0312 14.0938V14.7812C12.0315 15.3883 11.8855 15.9864 11.6054 16.525C11.3254 17.0635 10.9196 17.5266 10.4225 17.875H12.2169C12.1151 17.7003 12.0534 17.5051 12.0362 17.3037C12.019 17.1022 12.0468 16.8994 12.1175 16.71C12.1882 16.5205 12.3001 16.3491 12.4451 16.2082C12.5901 16.0673 12.7646 15.9603 12.9559 15.895C12.8004 15.6684 12.7177 15.3998 12.7188 15.125C12.7201 14.8404 12.8098 14.5632 12.9755 14.3316C13.1411 14.1001 13.3745 13.9257 13.6434 13.8325C13.4879 13.6059 13.4052 13.3373 13.4062 13.0625C13.4062 12.8819 13.4417 12.7031 13.5108 12.5363C13.5799 12.3694 13.6812 12.2178 13.8089 12.0901C13.9366 11.9624 14.0882 11.8611 14.255 11.7921C14.4218 11.723 14.6007 11.6875 14.7812 11.6875H17.5312C17.6473 11.6864 17.763 11.7015 17.875 11.7322V9.44281C17.8403 9.46843 17.807 9.49597 17.7753 9.52531ZM20.9688 18.5625H1.03125C0.940082 18.5625 0.852648 18.5987 0.788182 18.6632C0.723716 18.7276 0.6875 18.8151 0.6875 18.9062V19.25C0.6875 19.6147 0.832366 19.9644 1.09023 20.2223C1.34809 20.4801 1.69783 20.625 2.0625 20.625H19.9375C20.3022 20.625 20.6519 20.4801 20.9098 20.2223C21.1676 19.9644 21.3125 19.6147 21.3125 19.25V18.9062C21.3125 18.8151 21.2763 18.7276 21.2118 18.6632C21.1474 18.5987 21.0599 18.5625 20.9688 18.5625ZM7.5625 9.625H2.75C2.47674 9.6258 2.2149 9.73471 2.02168 9.92793C1.82846 10.1212 1.71955 10.383 1.71875 10.6562V17.875H6.0775C5.58041 17.5266 5.17464 17.0635 4.89459 16.525C4.61454 15.9864 4.46847 15.3883 4.46875 14.7812V14.0938C4.46902 14.0027 4.50533 13.9154 4.56973 13.851C4.63414 13.7866 4.72142 13.7503 4.8125 13.75C5.42501 13.7489 6.02835 13.8988 6.56906 14.1866C6.63917 13.702 6.80656 13.2365 7.06117 12.8183C7.31578 12.4001 7.65234 12.0376 8.05062 11.7528C8.10866 11.7109 8.17842 11.6884 8.25 11.6884C8.32158 11.6884 8.39134 11.7109 8.44938 11.7528C8.4975 11.7872 8.54906 11.825 8.59375 11.8628V10.6562C8.59295 10.383 8.48405 10.1212 8.29082 9.92793C8.0976 9.7347 7.83576 9.6258 7.5625 9.625ZM5.40031 3.88094C5.33541 3.81653 5.24769 3.78038 5.15625 3.78038C5.06481 3.78038 4.97709 3.81653 4.91219 3.88094C4.76094 4.03219 3.4375 5.39 3.4375 6.53125C3.43851 6.92719 3.57572 7.31072 3.8261 7.61743C4.07649 7.92415 4.42478 8.13537 4.8125 8.21562V8.9375H5.5V8.21562C5.88772 8.13538 6.23602 7.92416 6.4864 7.61744C6.73678 7.31072 6.874 6.92719 6.875 6.53125C6.875 5.39 5.55156 4.03219 5.40031 3.88094ZM14.7812 13.75H17.5312C17.7136 13.75 17.8885 13.6776 18.0174 13.5486C18.1463 13.4197 18.2188 13.2448 18.2188 13.0625C18.2188 12.8802 18.1463 12.7053 18.0174 12.5764C17.8885 12.4474 17.7136 12.375 17.5312 12.375H14.7812C14.5989 12.375 14.424 12.4474 14.2951 12.5764C14.1662 12.7053 14.0938 12.8802 14.0938 13.0625C14.0938 13.2448 14.1662 13.4197 14.2951 13.5486C14.424 13.6776 14.5989 13.75 14.7812 13.75ZM14.0938 15.8125H18.2188C18.4011 15.8125 18.576 15.7401 18.7049 15.6111C18.8338 15.4822 18.9062 15.3073 18.9062 15.125C18.9062 14.9427 18.8338 14.7678 18.7049 14.6389C18.576 14.5099 18.4011 14.4375 18.2188 14.4375H14.0938C13.9114 14.4375 13.7365 14.5099 13.6076 14.6389C13.4787 14.7678 13.4062 14.9427 13.4062 15.125C13.4062 15.3073 13.4787 15.4822 13.6076 15.6111C13.7365 15.7401 13.9114 15.8125 14.0938 15.8125ZM18.9062 16.5H13.4062C13.2239 16.5 13.049 16.5724 12.9201 16.7014C12.7912 16.8303 12.7188 17.0052 12.7188 17.1875C12.7188 17.3698 12.7912 17.5447 12.9201 17.6736C13.049 17.8026 13.2239 17.875 13.4062 17.875H18.9062C19.0886 17.875 19.2635 17.8026 19.3924 17.6736C19.5213 17.5447 19.5938 17.3698 19.5938 17.1875C19.5938 17.0052 19.5213 16.8303 19.3924 16.7014C19.2635 16.5724 19.0886 16.5 18.9062 16.5ZM8.25 12.4678C7.93791 12.7336 7.68492 13.0617 7.50731 13.4311C7.3297 13.8006 7.23141 14.2031 7.21875 14.6128C7.66082 14.976 8.01363 15.4358 8.25 15.9569C8.48638 15.4358 8.83918 14.976 9.28125 14.6128C9.2686 14.2031 9.1703 13.8006 8.99269 13.4311C8.81508 13.0617 8.56209 12.7336 8.25 12.4678ZM8.59375 17.5312V17.8559C9.34966 17.7704 10.0477 17.4098 10.5549 16.8428C11.062 16.2758 11.3428 15.542 11.3438 14.7812V14.4566C10.5878 14.5421 9.88979 14.9027 9.38264 15.4697C8.87549 16.0367 8.59469 16.7705 8.59375 17.5312ZM5.15625 14.4566V14.7812C5.15719 15.542 5.43799 16.2758 5.94514 16.8428C6.45229 17.4098 7.15034 17.7704 7.90625 17.8559V17.5312C7.90531 16.7705 7.62451 16.0367 7.11736 15.4697C6.61021 14.9027 5.91216 14.5421 5.15625 14.4566Z" fill="#333333"/>
</svg>
