<svg width="22" height="22" viewBox="0 0 22 22" fill="none" xmlns="http://www.w3.org/2000/svg">
<g clip-path="url(#clip0_302_783)">
<path d="M21.6306 18.4569C21.2407 18.1863 20.7052 18.2829 20.4346 18.6728C19.3456 20.2416 16.1758 20.2425 15.0862 18.6728C14.9256 18.4414 14.6619 18.3035 14.3802 18.3035C14.0985 18.3035 13.8348 18.4414 13.6742 18.6728C12.5852 20.2416 9.4154 20.2425 8.32576 18.6728C8.16515 18.4414 7.90145 18.3035 7.61979 18.3035C7.33813 18.3035 7.07439 18.4415 6.91382 18.6728C5.82478 20.2417 2.65504 20.2425 1.5654 18.6728C1.29474 18.2829 0.759225 18.1863 0.369415 18.4569C-0.0204817 18.7275 -0.117161 19.2629 0.153498 19.6528C1.73122 21.9257 5.5454 22.1717 7.61979 20.4241C9.44402 21.9609 12.5773 21.9429 14.3802 20.4241C16.454 22.1713 20.2701 21.9236 21.8464 19.6528C22.1171 19.2629 22.0204 18.7275 21.6306 18.4569Z" fill="#333333"/>
<path d="M4.21093 13.5773C4.68556 13.5773 5.0703 13.1925 5.0703 12.7179V11.429H12.8046V12.7179C12.8046 13.1925 13.1893 13.5773 13.664 13.5773C14.1386 13.5773 14.5233 13.1925 14.5233 12.7179V3.35143C14.5233 2.68809 15.063 2.1484 15.7264 2.1484C16.3898 2.1484 16.9296 2.68809 16.9296 3.35143C16.9296 3.82602 17.3143 4.21076 17.7889 4.21076C18.2636 4.21076 18.6483 3.82602 18.6483 3.35143C18.6483 1.74042 17.3376 0.429749 15.7265 0.429749C14.1154 0.429749 12.8046 1.74042 12.8046 3.35143V5.84344H5.0703V3.35143C5.0703 2.68809 5.60999 2.1484 6.27342 2.1484C6.93685 2.1484 7.47654 2.68809 7.47654 3.35143C7.47654 3.82602 7.86128 4.21076 8.33591 4.21076C8.81054 4.21076 9.19528 3.82602 9.19528 3.35143C9.19524 1.74042 7.88453 0.429749 6.27342 0.429749C4.66232 0.429749 3.35156 1.74042 3.35156 3.35143V12.718C3.35156 13.1925 3.7363 13.5773 4.21093 13.5773ZM5.0703 7.56205H12.8046V9.71034H5.0703V7.56205Z" fill="#333333"/>
<path d="M7.61992 16.5572C8.48509 17.2861 9.68503 17.702 11.0001 17.702C12.3151 17.702 13.515 17.2861 14.3802 16.5572C16.4541 18.3043 20.2702 18.0567 21.8465 15.7859C22.1171 15.396 22.0205 14.8605 21.6306 14.5899C21.2407 14.3193 20.7052 14.416 20.4346 14.8059C19.3456 16.3747 16.1758 16.3756 15.0862 14.8059C14.9256 14.5745 14.6619 14.4365 14.3802 14.4365C14.0985 14.4365 13.8348 14.5745 13.6742 14.8058C12.5852 16.3747 9.4154 16.3756 8.32576 14.8058C8.16515 14.5745 7.90145 14.4365 7.61979 14.4365C7.33813 14.4365 7.07439 14.5745 6.91382 14.8059C5.82478 16.3747 2.65504 16.3756 1.5654 14.8059C1.29474 14.4159 0.759225 14.3193 0.369415 14.5899C-0.0204817 14.8606 -0.117161 15.396 0.153498 15.7859C1.73122 18.0587 5.5454 18.3048 7.61992 16.5572Z" fill="#333333"/>
</g>
<defs>
<clipPath id="clip0_302_783">
<rect width="22" height="22" fill="white"/>
</clipPath>
</defs>
</svg>
