<svg width="22" height="22" viewBox="0 0 22 22" fill="none" xmlns="http://www.w3.org/2000/svg">
<path d="M17.074 4.40464C16.6815 4.22689 16.2195 4.401 16.0418 4.7933L15.1963 6.66014C15.1963 6.66014 13.131 7.49862 12.7669 7.61661C12.0609 7.8453 11.2215 7.77373 9.92927 8.11649L7.48006 8.72073L5.76032 7.43681C6.08408 6.87483 6.6302 5.92644 6.76675 5.68669C6.91449 5.42716 7.24671 5.07625 7.4147 4.90634C7.76693 4.95929 8.13856 4.9125 8.50119 4.76969C9.07301 4.54459 9.57013 4.10079 9.90099 3.51983C10.2315 2.93915 10.3595 2.28513 10.2612 1.67823C10.158 1.04119 9.8208 0.530717 9.31177 0.240866C9.03097 0.0810818 8.72139 0 8.39174 0C8.12666 0 7.85725 0.0531837 7.59095 0.158058C7.01886 0.383296 6.52178 0.827147 6.19124 1.40783C5.86057 1.98842 5.7326 2.64248 5.8309 3.24948C5.89309 3.63338 6.04415 3.97963 6.26878 4.25446C6.21088 4.48073 6.08264 4.93685 5.92766 5.20902C5.78751 5.45497 5.05717 6.72298 4.81719 7.13973L4.80082 7.168C4.74353 7.19828 4.68983 7.2377 4.64252 7.28715C4.40362 7.53646 4.41183 7.9324 4.66128 8.17149L6.79637 10.2184C6.94911 10.3628 7.16702 10.4406 7.391 10.406L7.48935 10.3908L9.60914 10.0642L10.2045 14.4527L8.65771 20.9221C8.57639 21.352 8.81567 21.7902 9.24026 21.9448C9.71224 22.1167 10.2342 21.8735 10.4061 21.4015L12.5987 16.034L13.4559 17.8457L12.8411 20.9478C12.7454 21.4504 13.1456 21.8635 13.6286 21.9397C14.1392 22.0203 14.5829 21.672 14.6989 21.1611L15.5803 17.7657C15.6027 17.6206 15.5902 17.4641 15.5351 17.3168L15.5039 17.2333L14.6367 14.9127L13.8543 9.21641L16.1772 8.1769L16.2408 8.14844C16.4309 8.06251 16.5874 7.90235 16.6628 7.69027L17.4868 5.37659C17.6201 4.99918 17.4455 4.57301 17.074 4.40464ZM6.84783 1.78179C7.20257 1.15871 7.80742 0.756048 8.3888 0.756048C8.58806 0.756048 8.77275 0.803727 8.93786 0.897592C9.5985 1.2738 9.73589 2.28247 9.24413 3.1461C8.88952 3.76914 8.28468 4.17175 7.7032 4.17175C7.50395 4.17175 7.3192 4.12412 7.15424 4.03016C6.83873 3.85059 6.63173 3.52039 6.57137 3.10042C6.50969 2.6716 6.60785 2.20325 6.84783 1.78179Z" fill="#333333"/>
<path d="M9.33084 5.55447C9.21211 6.5679 9.93755 7.48531 10.951 7.6039C11.9643 7.7225 12.8819 6.99705 13.0005 5.98367C13.119 4.97038 12.3935 4.05277 11.3801 3.93428C10.3668 3.81564 9.4492 4.54108 9.33084 5.55447Z" fill="#333333"/>
<path d="M15.8451 3.32379C16.2305 3.32379 16.543 3.0113 16.543 2.62582C16.543 2.24035 16.2305 1.92786 15.8451 1.92786C15.4596 1.92786 15.1471 2.24035 15.1471 2.62582C15.1471 3.0113 15.4596 3.32379 15.8451 3.32379Z" fill="#333333"/>
</svg>
