<svg width="20" height="22" viewBox="0 0 20 22" fill="none" xmlns="http://www.w3.org/2000/svg">
<g id="Group">
<path id="Vector" d="M19.0512 6.51298C19.0512 4.84373 17.7844 3.47076 16.1598 3.30213C15.7038 2.07248 14.5237 1.19434 13.135 1.19434C12.5271 1.19434 11.9606 1.36547 11.4754 1.65748C10.9235 0.669202 9.86858 0 8.65604 0C7.04849 0 5.719 1.17652 5.4723 2.71458C5.3411 2.69854 5.20848 2.68747 5.07299 2.68747C3.29002 2.68747 1.84432 4.13284 1.84432 5.91615C1.84432 6.0035 1.85073 6.08907 1.85752 6.17464C0.953392 6.74686 0.351562 7.75296 0.351562 8.90204C0.351562 9.91779 0.821483 10.8226 1.55481 11.4145C1.55161 11.4726 1.5459 11.5303 1.5459 11.5892C1.5459 13.3721 2.99127 14.8179 4.77457 14.8179C5.309 14.8179 5.81169 14.6859 6.25558 14.4563C6.87058 14.8981 7.75121 15.4507 8.17758 15.3405C8.17758 15.3405 8.33623 17.7977 8.302 18.4216C8.23675 19.6089 7.88058 20.9305 7.62997 22.0001H11.5118C11.5118 22.0001 10.9396 19.6156 10.9146 18.8195C10.8897 18.0234 11.1635 16.5574 11.1635 16.5574L12.5101 15.1644C13.0284 15.5188 13.6545 15.7203 14.3298 15.7203C15.999 15.7203 17.372 14.4503 17.5406 12.8256C18.7702 12.3696 19.6484 11.1863 19.6484 9.79766C19.6484 8.97765 19.3403 8.23179 18.8369 7.6621C18.9731 7.30481 19.0512 6.91837 19.0512 6.51298ZM7.0014 13.9233C7.26022 13.6762 7.47736 13.3875 7.64313 13.0669L8.27702 14.395C8.27668 14.395 7.93192 14.5472 7.0014 13.9233ZM9.37159 14.7433C9.04357 14.8029 8.48491 13.7928 8.08844 12.9717C8.52805 13.196 9.02433 13.3251 9.55196 13.3251C9.68745 13.3251 9.82044 13.314 9.95164 13.2976C9.84967 13.9547 9.67001 14.6888 9.37159 14.7433ZM10.7652 15.3897C10.0065 15.6004 10.4607 14.0288 10.6782 13.119C10.8355 13.0605 10.9877 12.9917 11.1324 12.9101C11.2198 13.5732 11.5079 14.1714 11.9346 14.6445C11.5649 14.973 11.1392 15.2859 10.7652 15.3897Z" fill="#333333"/>
</g>
</svg>
