<svg width="22" height="22" viewBox="0 0 22 22" fill="none" xmlns="http://www.w3.org/2000/svg">
<path d="M3.99041 12.5363V11.6655C3.99075 11.3522 4.11535 11.0518 4.33688 10.8303C4.55841 10.6088 4.85877 10.4842 5.17205 10.4838H7.6785C7.99179 10.4842 8.29215 10.6088 8.51367 10.8303C8.7352 11.0518 8.8598 11.3522 8.86014 11.6655V12.5363H9.62903C9.73834 12.5363 9.84738 12.5472 9.95456 12.5687V10.8979C9.95404 10.428 9.76711 9.97747 9.43481 9.64518C9.1025 9.31289 8.65195 9.12599 8.18201 9.12549H4.66846C4.19853 9.12601 3.748 9.31292 3.41572 9.64521C3.08343 9.9775 2.89652 10.428 2.896 10.8979V12.5687C3.00317 12.5472 3.11222 12.5363 3.22153 12.5363H3.99041Z" fill="#333333"/>
<path d="M5.17212 10.9565C4.98415 10.9567 4.80393 11.0315 4.67102 11.1644C4.5381 11.2973 4.46334 11.4776 4.46313 11.6655V12.5364H8.38747V11.6655C8.38727 11.4776 8.3125 11.2973 8.17959 11.1644C8.04667 11.0315 7.86646 10.9567 7.67849 10.9565H5.17212Z" fill="#333333"/>
<path d="M3.05078 17.2905H4.2741V18.2919H3.05078V17.2905Z" fill="#333333"/>
<path d="M8.57642 17.2905H9.79974V18.2919H8.57642V17.2905Z" fill="#333333"/>
<path d="M9.62893 13.009H3.22144C2.90815 13.0094 2.60779 13.134 2.38627 13.3555C2.16474 13.577 2.04014 13.8774 2.03979 14.1907V15.5664H10.8071V14.1907C10.8071 14.169 10.8079 14.1477 10.8088 14.1262C10.7919 13.8246 10.6603 13.5408 10.441 13.3331C10.2216 13.1253 9.93106 13.0094 9.62893 13.009Z" fill="#333333"/>
<path d="M2.03979 16.0391H10.8071V16.818H2.03979V16.0391Z" fill="#333333"/>
<path d="M12.136 12.5687C12.2432 12.5472 12.3522 12.5363 12.4615 12.5363H13.2304V11.6655C13.2307 11.3522 13.3553 11.0518 13.5769 10.8303C13.7984 10.6088 14.0988 10.4842 14.412 10.4838H16.9185C17.2318 10.4842 17.5321 10.6088 17.7537 10.8303C17.9752 11.0518 18.0998 11.3522 18.1001 11.6655V12.5363H18.869C18.9783 12.5363 19.0874 12.5472 19.1945 12.5687V10.8979C19.194 10.428 19.0071 9.9775 18.6748 9.64521C18.3425 9.31292 17.892 9.12601 17.4221 9.12549H13.9084C13.4385 9.12601 12.988 9.31292 12.6557 9.64521C12.3234 9.9775 12.1365 10.428 12.136 10.8979V12.5687Z" fill="#333333"/>
<path d="M14.4116 10.9565C14.2236 10.9567 14.0434 11.0315 13.9105 11.1644C13.7776 11.2973 13.7028 11.4776 13.7026 11.6655V12.5364H17.6274V11.6655C17.6272 11.4776 17.5524 11.2973 17.4195 11.1644C17.2866 11.0315 17.1064 10.9567 16.9184 10.9565H14.4116Z" fill="#333333"/>
<path d="M12.2908 17.2905H13.5141V18.2919H12.2908V17.2905Z" fill="#333333"/>
<path d="M17.8164 17.2905H19.0397V18.2919H17.8164V17.2905Z" fill="#333333"/>
<path d="M11.2798 16.0391H20.0506V16.818H11.2798V16.0391Z" fill="#333333"/>
<path d="M18.8689 13.009H12.4614C12.1481 13.0094 11.8478 13.134 11.6263 13.3555C11.4047 13.577 11.2801 13.8774 11.2798 14.1907V15.5664H20.0506V14.1907C20.0502 13.8774 19.9256 13.577 19.7041 13.3555C19.4826 13.134 19.1822 13.0094 18.8689 13.009Z" fill="#333333"/>
<path d="M11.5652 6.95119V6.70679H10.5254V6.95119C10.5254 7.08909 10.5802 7.22133 10.6777 7.31883C10.7752 7.41634 10.9074 7.47112 11.0453 7.47112C11.1832 7.47112 11.3154 7.41634 11.413 7.31883C11.5105 7.22133 11.5652 7.08909 11.5652 6.95119Z" fill="#333333"/>
<path d="M11.7994 3.98169H10.2911L9.86279 6.23403H12.2277L11.7994 3.98169Z" fill="#333333"/>
</svg>
