<svg width="22" height="20" viewBox="0 0 22 20" fill="none" xmlns="http://www.w3.org/2000/svg">
<g id="Group">
<g id="Group_2">
<g id="Group_3">
<path id="Vector" d="M7.5269 6.30298C7.38212 5.91313 6.99084 5.69287 6.59302 5.69287C6.39445 5.69287 6.37612 5.69796 6.25787 5.69796H3.04075C2.92244 5.69796 2.81731 5.69796 2.70542 5.69796C2.25112 5.69796 1.9165 5.91307 1.77172 6.30298L0.0539561 11.5268C-0.109697 11.9676 0.111462 12.459 0.547852 12.6242C0.9843 12.7896 1.47077 12.5662 1.63448 12.1255L2.09118 10.8959C2.09118 10.8959 2.12376 10.7719 2.12376 11.3132V18.5637C2.12376 19.1976 2.63258 19.7115 3.26029 19.7115C3.88801 19.7115 4.39682 19.1976 4.39682 18.5637V13.827C4.39682 13.827 4.39131 13.7851 4.4354 13.7851C4.54202 13.7851 4.75546 13.7851 4.86214 13.7851C4.90425 13.7851 4.90192 13.827 4.90192 13.827V18.5637C4.90192 19.1976 5.41073 19.7115 6.03845 19.7115C6.66616 19.7115 7.17498 19.1976 7.17498 18.5637V11.3132C7.17498 10.7632 7.22272 10.9365 7.22272 10.9365L7.66432 12.1256C7.82791 12.5664 8.3145 12.7897 8.75095 12.6244C9.18734 12.459 9.40856 11.9677 9.24484 11.527L7.5269 6.30298Z" fill="#333333"/>
<path id="Vector_2" d="M4.67187 5.1185C6.01955 5.1185 7.11206 4.03723 7.11206 2.70342C7.11206 1.3696 6.01955 0.28833 4.67187 0.28833C3.3242 0.28833 2.23169 1.3696 2.23169 2.70342C2.23169 4.03723 3.3242 5.1185 4.67187 5.1185Z" fill="#333333"/>
</g>
<g id="Group_4">
<path id="Vector_3" d="M17.1213 5.13013C18.469 5.13013 19.5615 4.03762 19.5615 2.68994C19.5615 1.34226 18.469 0.249756 17.1213 0.249756C15.7737 0.249756 14.6812 1.34226 14.6812 2.68994C14.6812 4.03762 15.7737 5.13013 17.1213 5.13013Z" fill="#333333"/>
<path id="Vector_4" d="M21.9195 11.4113L19.8374 6.33957C19.7183 6.08366 19.6129 5.74072 19.1237 5.74072C18.943 5.74072 18.7638 5.74072 18.5569 5.74072H16.0088C15.7979 5.74072 15.6883 5.74072 15.4285 5.74072C14.9405 5.74072 14.686 6.05868 14.5463 6.34508L12.3837 11.3785C12.1777 11.8011 12.3498 12.3117 12.7677 12.519C13.1859 12.7262 13.692 12.5517 13.8979 12.129L14.0607 11.7953C14.0607 11.7953 14.1113 11.7053 14.0923 11.8048C13.9746 12.4247 13.6495 14.2893 13.6495 14.2893C13.5706 14.6773 13.8298 14.9947 14.2257 14.9947C14.2257 14.9947 14.9321 14.9947 15.1675 14.9947C15.2349 14.9947 15.2229 15.0455 15.2229 15.0455V18.7934C15.2229 19.4211 15.6138 19.7502 16.0963 19.7502C16.5786 19.7502 16.9697 19.4211 16.9697 18.7934V15.0306C16.9697 15.0306 16.9678 14.9934 17.0071 14.9947C17.0578 14.9964 17.1862 14.995 17.2438 14.995C17.2766 14.995 17.2725 15.0345 17.2725 15.0345V18.7934C17.2725 19.4211 17.6636 19.7502 18.1461 19.7502C18.6284 19.7502 19.0195 19.4211 19.0195 18.7934V15.0555C19.0195 15.0555 19.0137 14.9947 19.0861 14.9947C19.3394 14.9947 20.0992 14.9947 20.0992 14.9947C20.4951 14.9947 20.7607 14.6761 20.6893 14.2866C20.6893 14.2866 20.3635 12.2867 20.2767 11.7419C20.2519 11.5858 20.5113 12.1403 20.5113 12.1403C20.7097 12.5665 21.0928 12.7445 21.5146 12.5448C21.9367 12.3451 22.1179 11.8377 21.9195 11.4113Z" fill="#333333"/>
</g>
<g id="Group_5">
<g id="Group_6">
<g id="Group_7">
<path id="Vector_5" d="M11.408 19.2922C11.408 19.5229 11.2194 19.7116 10.9887 19.7116H10.809C10.5783 19.7116 10.3896 19.5229 10.3896 19.2922V0.923711C10.3896 0.693087 10.5783 0.504395 10.809 0.504395H10.9887C11.2193 0.504395 11.408 0.693087 11.408 0.923711V19.2922Z" fill="#333333"/>
</g>
</g>
</g>
</g>
</g>
</svg>
