<svg width="22" height="22" viewBox="0 0 22 22" fill="none" xmlns="http://www.w3.org/2000/svg">
<path fill-rule="evenodd" clip-rule="evenodd" d="M22 11C22 17.0751 17.0751 22 11 22C4.92487 22 0 17.0751 0 11C0 4.92487 4.92487 0 11 0C17.0751 0 22 4.92487 22 11ZM11.8932 16.1284C12.3862 15.6328 12.3862 14.8289 11.8932 14.3334C11.4 13.8378 10.6004 13.8378 10.1072 14.3334C9.61423 14.8289 9.61423 15.6328 10.1072 16.1284C10.6004 16.6239 11.4 16.6239 11.8932 16.1284ZM8.24583 12.462C8.98109 11.7222 9.95985 11.3149 11.0002 11.3149C12.0406 11.3149 13.0194 11.7222 13.7546 12.462C14.0434 12.7523 14.0434 13.2226 13.7546 13.5126C13.6103 13.6577 13.4217 13.7303 13.2321 13.7303C13.0435 13.7303 12.8539 13.6577 12.7094 13.5126C12.2534 13.0536 11.6462 12.8009 11.0002 12.8009C10.3543 12.8009 9.74709 13.0536 9.29106 13.5126C9.00218 13.8028 8.53442 13.8028 8.24583 13.5126C7.957 13.2226 7.957 12.7522 8.24583 12.462ZM6.52443 10.7321C7.71984 9.53039 9.3094 8.86849 11.0002 8.86849C12.691 8.86849 14.2801 9.53039 15.4754 10.7321C15.764 11.0223 15.764 11.4927 15.4754 11.7827C15.3311 11.9278 15.1423 12.0004 14.9527 12.0004C14.7641 12.0004 14.5745 11.9278 14.4302 11.7827C13.514 10.8615 12.2955 10.3543 11.0002 10.3543C9.70429 10.3543 8.48579 10.8615 7.5696 11.7827C7.28124 12.0729 6.81326 12.0729 6.52443 11.7827C6.23584 11.4927 6.23584 11.0223 6.52443 10.7321ZM11.0002 6.41667C13.3428 6.41667 15.5447 7.33349 17.2007 8.99854C17.4887 9.28879 17.4887 9.75923 17.2002 10.0494C16.9113 10.3391 16.4435 10.3393 16.155 10.0491C14.7781 8.66475 12.9476 7.9025 11.0002 7.9025C9.05286 7.9025 7.2218 8.6648 5.84501 10.0491C5.70122 10.1942 5.51161 10.2667 5.32251 10.2667C5.13341 10.2667 4.94431 10.1942 4.79978 10.0491C4.51118 9.75918 4.51118 9.28879 4.79978 8.99854C6.45574 7.33349 8.65763 6.41667 11.0002 6.41667Z" fill="#333333"/>
</svg>
