<svg width="22" height="22" viewBox="0 0 22 22" fill="none" xmlns="http://www.w3.org/2000/svg">
<g clip-path="url(#clip0_135_2463)">
<path d="M11.1979 9.20093H0V10.3991H0.957362V21.2931H8.87398V10.3991H11.1979V9.20093Z" fill="#333333"/>
<path d="M16.9886 14.6408C16.9907 14.6408 16.9944 14.6422 16.9968 14.6422C18.4571 14.6847 19.2906 14.2495 19.4199 13.0925L20.0123 7.76545C20.1228 6.77294 19.3313 6.0156 18.5407 5.72585L18.5343 5.72379C18.5343 5.72379 18.2524 5.6321 17.9946 5.59694C17.7259 5.56112 17.4613 5.60956 17.4613 5.60956C16.8437 5.68157 16.2336 6.11829 16.2336 6.11829C15.0978 6.92729 13.3369 7.10209 10.996 6.63723C10.4071 6.51875 9.83465 6.90318 9.71769 7.49185C9.60068 8.08065 9.98328 8.65277 10.5723 8.76983C11.5536 8.96551 12.4663 9.0623 13.3083 9.0623C14.0735 9.0623 14.7608 8.97759 15.407 8.81643L15.4018 8.89158L15.0243 12.2868C13.0469 12.3583 11.8011 12.7657 11.3128 13.5056C10.6524 14.5112 9.57943 18.5653 9.26652 19.809C9.10478 20.4514 9.49521 21.1033 10.1377 21.2654C10.2355 21.29 10.3341 21.3023 10.4312 21.3023C10.9681 21.3023 11.4578 20.939 11.5945 20.3949C12.1459 18.2042 12.9078 15.9335 13.2557 15.2147C13.544 14.5895 15.4508 14.5562 16.9886 14.6408Z" fill="#333333"/>
<path d="M17.7072 5.46169C19.0486 5.46169 20.1361 4.3742 20.1361 3.03272C20.1361 1.69124 19.0486 0.60376 17.7072 0.60376C16.3657 0.60376 15.2782 1.69124 15.2782 3.03272C15.2782 4.3742 16.3657 5.46169 17.7072 5.46169Z" fill="#333333"/>
<path d="M21.6773 12.2844L21.9999 8.10205C22.0007 8.07834 21.9918 8.05531 21.9754 8.03822C21.9589 8.02114 21.9362 8.01147 21.9125 8.01147H20.585C20.5378 8.01147 20.4992 8.04878 20.4975 8.09592L20.1975 12.2814C20.158 13.5718 19.7778 15.1588 17.6105 15.1588C17.5797 15.1588 15.2137 15.1535 15.2137 15.1535H15.2136C15.1904 15.1535 15.1682 15.1627 15.1517 15.1791C15.1354 15.1955 15.1261 15.2178 15.1261 15.241V16.5343C15.1261 16.5826 15.1653 16.6218 15.2136 16.6218L17.3895 16.6217V19.5944H16.7063C15.812 19.5944 15.0565 20.3795 15.0565 21.3086C15.0565 21.357 15.0957 21.3961 15.144 21.3961H16.0057C16.0541 21.3961 16.0933 21.357 16.0933 21.3086C16.0933 20.9668 16.3738 20.678 16.706 20.678H19.5391C19.8714 20.678 20.1521 20.9668 20.1521 21.3086C20.1521 21.357 20.1914 21.3961 20.2397 21.3961H21.1017C21.15 21.3961 21.1892 21.357 21.1892 21.3086C21.1892 20.3795 20.4335 19.5944 19.539 19.5944H18.8565V16.4623C20.993 16.4045 21.4887 14.2874 21.6773 12.2844Z" fill="#333333"/>
<path d="M9.10367 7.92367H5.00133L3.61288 2.83562C3.60309 2.79984 3.56623 2.77868 3.53049 2.78856L2.79015 2.99056C2.77298 2.99525 2.75839 3.00657 2.74958 3.022C2.74073 3.03748 2.7384 3.05577 2.7431 3.07295L4.29924 8.77525C4.3072 8.80441 4.33372 8.82468 4.36396 8.82468H9.10371C9.14079 8.82468 9.1708 8.79466 9.1708 8.75758V7.99072C9.17076 7.95368 9.14075 7.92367 9.10367 7.92367Z" fill="#333333"/>
</g>
<defs>
<clipPath id="clip0_135_2463">
<rect width="22" height="22" fill="white"/>
</clipPath>
</defs>
</svg>
