<svg width="100" height="100" viewBox="0 0 100 100" fill="none" xmlns="http://www.w3.org/2000/svg">
<circle cx="50" cy="50" r="50" fill="#EEEEEE"/>
<path d="M59.2835 51.7733C61.7466 49.8461 63.5444 47.2032 64.4269 44.2125C65.3094 41.2218 65.2326 38.0319 64.2072 35.0866C63.1818 32.1413 61.2589 29.5871 58.7059 27.7793C56.1529 25.9715 53.0968 25 49.9627 25C46.8287 25 43.7726 25.9715 41.2196 27.7793C38.6666 29.5871 36.7436 32.1413 35.7183 35.0866C34.6929 38.0319 34.6161 41.2218 35.4986 44.2125C36.381 47.2032 38.1789 49.8461 40.6419 51.7733C36.4214 53.4549 32.7388 56.2441 29.9868 59.8434C27.2348 63.4428 25.5165 67.7174 25.0152 72.2115C24.9789 72.5396 25.0079 72.8716 25.1006 73.1886C25.1934 73.5055 25.348 73.8012 25.5556 74.0588C25.9749 74.5789 26.5848 74.912 27.2511 74.9849C27.9175 75.0578 28.5856 74.8645 29.1086 74.4474C29.6316 74.0304 29.9665 73.4239 30.0398 72.7612C30.5915 67.877 32.9333 63.3661 36.6177 60.0905C40.3021 56.8148 45.0709 55.004 50.013 55.004C54.955 55.004 59.7238 56.8148 63.4083 60.0905C67.0927 63.3661 69.4344 67.877 69.9861 72.7612C70.0544 73.3751 70.349 73.9422 70.813 74.3528C71.2769 74.7635 71.8774 74.9887 72.4985 74.9849H72.7748C73.4334 74.9096 74.0353 74.5784 74.4495 74.0636C74.8636 73.5488 75.0563 72.892 74.9857 72.2365C74.4819 67.7296 72.7544 63.444 69.9883 59.8392C67.2221 56.2343 63.5216 53.446 59.2835 51.7733ZM49.9627 49.9993C47.9752 49.9993 46.0322 49.4132 44.3796 48.315C42.727 47.2168 41.4389 45.6559 40.6783 43.8297C39.9177 42.0035 39.7187 39.994 40.1065 38.0553C40.4942 36.1166 41.4513 34.3358 42.8568 32.9381C44.2622 31.5404 46.0528 30.5885 48.0022 30.2029C49.9516 29.8173 51.9722 30.0152 53.8085 30.7716C55.6448 31.5281 57.2142 32.809 58.3185 34.4526C59.4227 36.0961 60.0121 38.0284 60.0121 40.0051C60.0121 42.6557 58.9533 45.1978 57.0687 47.0721C55.1841 48.9464 52.628 49.9993 49.9627 49.9993Z" fill="#7D7D7D"/>
</svg>
