<svg width="24" height="25" viewBox="0 0 24 25" fill="none" xmlns="http://www.w3.org/2000/svg">
<g id="favorite">
<path id="Vector" d="M21.5097 10.502L21.5 10.5506V10.6001C21.5 10.618 21.4953 10.6317 21.4909 10.6395C21.4901 10.6408 21.4894 10.6419 21.4887 10.6429C21.4875 10.6446 21.4863 10.6459 21.4853 10.6469C21.4838 10.6483 21.4813 10.6504 21.4764 10.6528L21.4067 10.6877L21.3508 10.7422L17.2508 14.7422L17.0619 14.9265L17.1075 15.1865L18.1068 20.8823C18.1069 20.8829 18.107 20.8835 18.1071 20.8842C18.1571 21.19 17.9688 21.4332 17.7413 21.5001H17.741H17.7406H17.7403H17.7399H17.7395H17.7392H17.7388H17.7384H17.7381H17.7377H17.7374H17.737H17.7367H17.7363H17.736H17.7356H17.7353H17.7349H17.7346H17.7342H17.7339H17.7335H17.7332H17.7328H17.7325H17.7321H17.7318H17.7315H17.7311H17.7308H17.7304H17.7301H17.7298H17.7294H17.7291H17.7288H17.7284H17.7281H17.7278H17.7275H17.7271H17.7268H17.7265H17.7261H17.7258H17.7255H17.7252H17.7248H17.7245H17.7242H17.7239H17.7236H17.7232H17.7229H17.7226H17.7223H17.722H17.7216H17.7213H17.721H17.7207H17.7204H17.7201H17.7198H17.7195H17.7191H17.7188H17.7185H17.7182H17.7179H17.7176H17.7173H17.717H17.7167H17.7164H17.7161H17.7157H17.7154H17.7151H17.7148H17.7145H17.7142H17.7139H17.7136H17.7133H17.713H17.7127H17.7124H17.7121H17.7118H17.7115H17.7112H17.7109H17.7106H17.7103H17.71H17.7097H17.7094H17.7091H17.7088H17.7085H17.7082H17.7079H17.7076H17.7073H17.7071H17.7068H17.7065H17.7062H17.7059H17.7056H17.7053H17.705H17.7047H17.7044H17.7041H17.7038H17.7035H17.7032H17.7029H17.7026H17.7023H17.7021H17.7018H17.7015H17.7012H17.7009H17.7006H17.7003H17.7H17.6997H17.6994H17.6991H17.6988H17.6985H17.6982H17.6979H17.6977H17.6974H17.6971H17.6968H17.6965H17.6962H17.6959H17.6956H17.6953H17.695H17.6947H17.6944H17.6941H17.6938H17.6935H17.6932H17.6929H17.6927H17.6924H17.6921H17.6918H17.6915H17.6912H17.6909H17.6906H17.6903H17.69H17.6897H17.6894H17.6891H17.6888H17.6885H17.6882H17.6879H17.6876H17.6873H17.687H17.6867H17.6864H17.6861H17.6858H17.6855H17.6852H17.6849H17.6846H17.6843H17.6839H17.6836H17.6833H17.683H17.6827H17.6824H17.6821H17.6818H17.6815H17.6812H17.6809H17.6805H17.6802H17.6799H17.6796H17.6793H17.679H17.6787H17.6784H17.678H17.6777H17.6774H17.6771H17.6768H17.6764H17.6761H17.6758H17.6755H17.6752H17.6748H17.6745H17.6742H17.6739H17.6735H17.6732H17.6729H17.6725H17.6722H17.6719H17.6716H17.6712H17.6709H17.6706H17.6702H17.6699H17.6696H17.6692H17.6689H17.6685H17.6682H17.6679H17.6675H17.6672H17.6668H17.6665H17.6661H17.6658H17.6654H17.6651H17.6647H17.6644H17.664H17.6637H17.6633H17.663H17.6626H17.6623H17.6619H17.6616H17.6612H17.6608H17.6605H17.6601H17.6597H17.6594H17.659H17.6586H17.6583H17.6579H17.6575H17.6572H17.6568H17.6564H17.656H17.6557H17.6553H17.6549H17.6545H17.6541H17.6537H17.6534H17.653H17.6526H17.6522H17.6518H17.6514H17.651H17.6506H17.6502H17.6498H17.6494H17.649H17.6486H17.6482H17.6478H17.6474H17.647H17.6466H17.6462H17.6458H17.6454H17.645H17.6446H17.6441H17.6437H17.6433H17.6429H17.6425H17.642H17.6416H17.6412H17.6407H17.6403H17.6399H17.6394H17.639H17.6386H17.6381H17.6377H17.6373H17.6368H17.6364H17.6359H17.6355H17.635H17.6346H17.6341H17.6337H17.6332H17.6327H17.6323H17.6318H17.6314H17.6309H17.6304H17.63H17.6295H17.629H17.6285H17.6281H17.6276H17.6271H17.6266H17.6261H17.6257H17.6252H17.6247H17.6242H17.6237H17.6232H17.6227H17.6222H17.6217H17.6212H17.6207H17.6202H17.6197H17.6192H17.6187H17.6181H17.6176H17.6171H17.6166H17.6161H17.6155H17.615H17.6145H17.614H17.6134H17.6129H17.6124H17.6118H17.6113H17.6107H17.6102H17.6096H17.6091H17.6085H17.608H17.6074H17.6069H17.6063H17.6057H17.6052H17.6046H17.604H17.6035H17.6029H17.6023H17.6017H17.6012H17.6006H17.6C17.5485 21.5001 17.5067 21.5 17.4677 21.4988C17.4403 21.4979 17.4188 21.4965 17.4019 21.4948L17.4004 21.4933L17.3339 21.4582L12.2339 18.7582L12 18.6343L11.7661 18.7582L6.66606 21.4582L6.65423 21.4644L6.64275 21.4713C6.42077 21.6045 6.12198 21.5469 5.93977 21.2607C5.90888 21.1907 5.90111 21.1116 5.90012 20.9429L6.89248 15.2865L6.93809 15.0265L6.74916 14.8422L2.65169 10.8446C2.44882 10.64 2.44944 10.3577 2.65355 10.1536L2.71093 10.0962L2.74721 10.0237C2.74738 10.0233 2.74754 10.023 2.74769 10.0227C2.74796 10.0226 2.74827 10.0224 2.74861 10.0223C2.75963 10.0168 2.80233 10.0001 2.9 10.0001H2.93492L2.96949 9.99521L8.66949 9.19521L8.93462 9.158L9.05063 8.91671L11.5394 3.74004C11.7216 3.4533 12.0206 3.39553 12.2428 3.52881L12.2592 3.53869L12.2764 3.54727C12.3462 3.58219 12.3714 3.60357 12.3839 3.61611C12.3965 3.62866 12.4179 3.65383 12.4528 3.72367L15.0528 8.92367L15.1703 9.15869L15.4305 9.19521L21.1305 9.99521L21.1651 10.0001H21.2C21.2421 10.0001 21.3306 10.0291 21.4165 10.1509C21.5019 10.2719 21.5282 10.4094 21.5097 10.502Z" stroke="#196533"/>
</g>
</svg>
