<svg width="12" height="12" viewBox="0 0 12 12" fill="none" xmlns="http://www.w3.org/2000/svg">
<g id="27">
<path id="Vector" d="M7.05547 5.64521L6.70076 5.99915L7.05547 6.35309L11.3513 10.6396L11.3524 10.6406C11.3991 10.687 11.4363 10.7422 11.4616 10.803C11.487 10.8639 11.5 10.9291 11.5 10.995C11.5 11.0609 11.487 11.1262 11.4616 11.187C11.4363 11.2479 11.3991 11.3031 11.3524 11.3495L11.3495 11.3524C11.3031 11.3992 11.2479 11.4363 11.1871 11.4616C11.1263 11.487 11.061 11.5 10.9952 11.5C10.9293 11.5 10.8641 11.487 10.8033 11.4616C10.7425 11.4363 10.6873 11.3992 10.6409 11.3524L10.6398 11.3513L6.35399 7.05487L6 6.70001L5.64601 7.05487L1.36015 11.3513L1.35912 11.3524C1.31272 11.3992 1.25752 11.4363 1.19672 11.4616C1.13592 11.487 1.0707 11.5 1.00483 11.5C0.938955 11.5 0.873737 11.487 0.812933 11.4616C0.752131 11.4363 0.696936 11.3992 0.650537 11.3524L0.64764 11.3495C0.600861 11.3031 0.56373 11.2479 0.538389 11.187C0.513048 11.1262 0.5 11.0609 0.5 10.995C0.5 10.9291 0.513048 10.8639 0.538389 10.803C0.56373 10.7422 0.600861 10.687 0.647639 10.6406L0.648679 10.6396L4.94453 6.35309L5.29924 5.99915L4.94453 5.64521L0.649091 1.35915C0.649028 1.35909 0.648965 1.35903 0.648902 1.35896C0.554659 1.26461 0.501705 1.13667 0.501705 1.00326C0.501705 0.869768 0.55473 0.741753 0.649091 0.647378C0.74345 0.553005 0.871414 0.5 1.00483 0.5C1.13817 0.5 1.26607 0.552948 1.36041 0.647225C1.36046 0.647276 1.36051 0.647327 1.36056 0.647378L5.64601 4.94343L6 5.29829L6.35399 4.94343L10.6394 0.647378C10.6395 0.647333 10.6395 0.647289 10.6396 0.647244C10.7339 0.552955 10.8618 0.5 10.9952 0.5C11.1286 0.5 11.2565 0.553005 11.3509 0.647378C11.4453 0.741753 11.4983 0.869768 11.4983 1.00326C11.4983 1.13671 11.4453 1.26467 11.351 1.35904C11.351 1.35908 11.3509 1.35911 11.3509 1.35915L7.05547 5.64521Z" fill="#7D7D7D" stroke="#7D7D7D"/>
</g>
</svg>
