<svg width="42" height="42" viewBox="0 0 42 42" fill="none" xmlns="http://www.w3.org/2000/svg">
<rect width="42" height="42" rx="6" fill="#B4B4B4"/>
<path d="M21.1154 24.56L17.0414 28.634C16.5481 29.11 15.8894 29.376 15.2039 29.376C14.5184 29.376 13.8596 29.11 13.3664 28.634C13.1244 28.393 12.9325 28.1066 12.8015 27.7913C12.6705 27.476 12.6031 27.1379 12.6031 26.7965C12.6031 26.455 12.6705 26.1169 12.8015 25.8016C12.9325 25.4863 13.1244 25.1999 13.3664 24.959L17.4404 20.885C17.6381 20.6872 17.7491 20.4191 17.7491 20.1395C17.7491 19.8598 17.6381 19.5917 17.4404 19.394C17.2426 19.1962 16.9745 19.0852 16.6949 19.0852C16.4152 19.0852 16.1471 19.1962 15.9494 19.394L11.8754 23.4785C11.0546 24.3718 10.6108 25.5477 10.6364 26.7605C10.6621 27.9733 11.1553 29.1294 12.0131 29.9872C12.8709 30.845 14.027 31.3382 15.2398 31.3639C16.4527 31.3896 17.6285 30.9457 18.5219 30.125L22.6064 26.051C22.8041 25.8532 22.9151 25.5851 22.9151 25.3055C22.9151 25.0258 22.8041 24.7577 22.6064 24.56C22.4086 24.3622 22.1405 24.2512 21.8609 24.2512C21.5812 24.2512 21.3131 24.3622 21.1154 24.56ZM30.1244 11.876C29.2411 10.9982 28.0464 10.5055 26.8011 10.5055C25.5558 10.5055 24.3611 10.9982 23.4779 11.876L19.3934 15.95C19.2955 16.0479 19.2178 16.1641 19.1648 16.292C19.1118 16.4199 19.0846 16.557 19.0846 16.6955C19.0846 16.8339 19.1118 16.971 19.1648 17.0989C19.2178 17.2268 19.2955 17.3431 19.3934 17.441C19.4913 17.5389 19.6075 17.6165 19.7354 17.6695C19.8633 17.7225 20.0004 17.7498 20.1389 17.7498C20.2773 17.7498 20.4144 17.7225 20.5423 17.6695C20.6702 17.6165 20.7865 17.5389 20.8844 17.441L24.9584 13.367C25.4516 12.8909 26.1104 12.6249 26.7959 12.6249C27.4814 12.6249 28.1401 12.8909 28.6334 13.367C28.8753 13.6079 29.0672 13.8943 29.1982 14.2096C29.3292 14.5249 29.3966 14.863 29.3966 15.2045C29.3966 15.5459 29.3292 15.884 29.1982 16.1993C29.0672 16.5146 28.8753 16.801 28.6334 17.042L24.5594 21.116C24.4609 21.2136 24.3828 21.3297 24.3295 21.4577C24.2762 21.5856 24.2488 21.7229 24.2488 21.8615C24.2488 22.0001 24.2762 22.1373 24.3295 22.2653C24.3828 22.3932 24.4609 22.5094 24.5594 22.607C24.657 22.7054 24.7731 22.7835 24.901 22.8368C25.029 22.8901 25.1662 22.9176 25.3049 22.9176C25.4435 22.9176 25.5807 22.8901 25.7087 22.8368C25.8366 22.7835 25.9527 22.7054 26.0504 22.607L30.1244 18.5225C31.0021 17.6392 31.4948 16.4445 31.4948 15.1992C31.4948 13.9539 31.0021 12.7592 30.1244 11.876ZM17.6714 24.329C17.7695 24.4263 17.8858 24.5033 18.0138 24.5555C18.1417 24.6078 18.2787 24.6343 18.4169 24.6335C18.555 24.6343 18.692 24.6078 18.82 24.5555C18.9479 24.5033 19.0642 24.4263 19.1624 24.329L24.3284 19.163C24.5261 18.9652 24.6371 18.6971 24.6371 18.4175C24.6371 18.1378 24.5261 17.8697 24.3284 17.672C24.1306 17.4742 23.8625 17.3632 23.5829 17.3632C23.3032 17.3632 23.0351 17.4742 22.8374 17.672L17.6714 22.838C17.5729 22.9356 17.4948 23.0517 17.4415 23.1797C17.3882 23.3076 17.3608 23.4449 17.3608 23.5835C17.3608 23.7221 17.3882 23.8593 17.4415 23.9873C17.4948 24.1152 17.5729 24.2314 17.6714 24.329Z" fill="white"/>
</svg>
